<svg height="512" viewBox="0 0 58 59" width="512" xmlns="http://www.w3.org/2000/svg"><g id="Page-1" fill="none" fill-rule="evenodd"><g id="008---Virus" fill-rule="nonzero"><path id="Shape" d="m53 44h3c1.1032019-.0032948 1.9967052-.8967981 2-2v-40c-.0032948-1.10320187-.8967981-1.9967052-2-2h-54c-1.10320187.0032948-1.9967052.89679813-2 2v40c.0032948 1.1032019.89679813 1.9967052 2 2z" fill="#ecf0f1"/><path id="Shape" d="m58 2v6h-58v-6c.0032948-1.10320187.89679813-1.9967052 2-2h54c1.1032019.0032948 1.9967052.89679813 2 2z" fill="#3b97d3"/><circle id="Oval" cx="4" cy="4" fill="#ff5364" r="1"/><circle id="Oval" cx="8" cy="4" fill="#f0c419" r="1"/><circle id="Oval" cx="12" cy="4" fill="#65ddb9" r="1"/><path id="Shape" d="m32 3h-6c-.5522847 0-1 .44771525-1 1s.4477153 1 1 1h6c.5522847 0 1-.44771525 1-1s-.4477153-1-1-1z" fill="#2980ba"/><path id="Shape" d="m54 3h-11c-.5522847 0-1 .44771525-1 1s.4477153 1 1 1h11c.5522847 0 1-.44771525 1-1s-.4477153-1-1-1z" fill="#2980ba"/><path id="Shape" d="m6 14h-2c-.55228475 0-1-.4477153-1-1s.44771525-1 1-1h2c.55228475 0 1 .4477153 1 1s-.44771525 1-1 1z" fill="#35495e"/><path id="Shape" d="m6 22h-2c-.55228475 0-1-.4477153-1-1s.44771525-1 1-1h2c.55228475 0 1 .4477153 1 1s-.44771525 1-1 1z" fill="#35495e"/><path id="Shape" d="m19 14h-9c-.55228475 0-1-.4477153-1-1s.44771525-1 1-1h9c.5522847 0 1 .4477153 1 1s-.4477153 1-1 1z" fill="#35495e"/><path id="Shape" d="m12 18h-8c-.55228475 0-1-.4477153-1-1s.44771525-1 1-1h8c.5522847 0 1 .4477153 1 1s-.4477153 1-1 1z" fill="#35495e"/><g fill="#3d324c"><path id="Shape" d="m27 25c-.5522847 0-1-.4477153-1-1 0-4.17-3.212-5.022-3.244-5.03-.3539356-.0796449-.636976-.3447323-.7396106-.6926975-.1026346-.3479653-.0087636-.7242251.2452935-.9832013.2540571-.2589763.6284478-.3600447.9783171-.2641012 1.648.412 4.763 2.4 4.76 6.97 0 .5522847-.4477153 1-1 1z"/><path id="Shape" d="m31 25c-.5522847 0-1-.4477153-1-1 0-4.571 3.112-6.558 4.76-6.97.3498693-.0959435.72426.0051249.9783171.2641012.2540571.2589762.3479281.635236.2452935.9832013-.1026346.3479652-.385675.6130526-.7396106.6926975-.127.03-3.244.912-3.244 5.03 0 .5522847-.4477153 1-1 1z"/><path id="Shape" d="m19.082 37.727c-.0975509-.0006359-.1945178-.0151136-.288-.043l-5.462-1.646c-1.1679429-.3489423-2.1130367-1.2114023-2.5670877-2.3426357s-.3675016-2.4077712.2350877-3.4673643l2.132-3.728c.2744855-.4793832.8856168-.6454855 1.365-.371s.6454855.8856168.371 1.365l-2.13 3.72c-.3012687.529932-.3444101 1.1683303-.1171778 1.7339771s.700028.9967823 1.2841778 1.1710229l5.465 1.647c.4756909.1423922.774848.6122642.7025892 1.1035238-.0722588.4912597-.4940441.8550891-.9905892.8544762z"/><path id="Shape" d="m14 59c-.3583279.001065-.6898369-.1896767-.869-.5l-2.131-3.723c-.6049045-1.0602018-.6926132-2.3385813-.2381746-3.4714639.4544386-1.1328825 1.4012833-1.9962667 2.5711746-2.3445361l5.467-1.638c.5290888-.1585057 1.0864943.1419112 1.245.671s-.1419112 1.0864943-.671 1.245l-5.464 1.639c-.5832489.1714163-1.0557184.6007665-1.282 1.165-.2301209.5687136-.1877659 1.211405.115 1.745l2.125 3.712c.1788102.3097067.1786223.6913257-.0004927 1.0008562-.1791149.3095305-.5098891.4998504-.8675073.4991438z"/><path id="Shape" d="m12.627 45c-1.6005433-.0006908-3.04658645-.9554098-3.676-2.427l-1.87-4.373c-.15102999-.3301892-.11121766-.7162998.10401071-1.0087237s.57205183-.4452096.93221024-.3991564c.36015841.0460531.66705653.2837083.80177905.6208801l1.87 4.37c.4205518.9830098 1.5398768 1.461399 2.541 1.086l5.258-1.969c.5134397-.1793319 1.0760658.0845485 1.2664602.5939895.1903944.5094411-.0612561 1.0776427-.5664602 1.2790105l-5.26 1.973c-.4481892.1672713-.9226145.2532841-1.401.254z"/><path id="Shape" d="m38.928 37.76c-.4991974.0040501-.9249145-.3606791-.9974891-.8545894-.0725746-.4939102.2302274-.9656871.7094891-1.1054106l5.572-1.679c.5860998-.1735642 1.0606493-.6056236 1.2882699-1.1729211s.1833177-1.2075394-.1202699-1.7380789l-2.128-3.71c-.2744855-.4793832-.1083832-1.0905145.371-1.365s1.0905145-.1083832 1.365.371l2.13 3.72c.6049045 1.0602018.6926132 2.3385813.2381746 3.4714639-.4544386 1.1328825-1.4012833 1.9962667-2.5711746 2.3445361l-5.569 1.678c-.0935385.0272934-.1905639.0407691-.288.04z"/><path id="Shape" d="m44.119 59c-.3574397.0003485-.6878859-.1901128-.8667566-.4995777s-.1789635-.6908704-.0002434-1.0004223l2.13-3.72c.3012687-.529932.3444101-1.1683303.1171778-1.7339771s-.700028-.9967823-1.2841778-1.1710229l-5.3-1.59c-.3422605-.1025352-.6038203-.3798754-.6861524-.7275493-.0823321-.3476738.0270717-.7128614.287-.958.2599284-.2451386.630892-.3329859.9731524-.2304507l5.3 1.59c1.1681212.3487118 2.1134638 1.2110773 2.5677216 2.3423408s.3678417 2.4079307-.2347216 3.4676592l-2.134 3.731c-.1791631.3103233-.5106721.501065-.869.5z"/><path id="Shape" d="m45.493 45c-.4780708-.0005993-.9521884-.0866178-1.4-.254l-5.366-2.012c-.3421524-.1195055-.5928656-.4147825-.6553059-.7717853-.0624403-.3570029.0731665-.7198477.3544445-.9483921.281278-.2285443.6641971-.2870126 1.0008614-.1528226l5.364 2.012c1.0010884.3738863 2.119246-.1052612 2.539-1.088l1.87-4.369c.1347225-.3371718.4416206-.574827.8017791-.6208801.3601584-.0460532.7169818.1067325.9322102.3991564s.2550407.6785345.1040107 1.0087237l-1.87 4.37c-.6292705 1.4712564-2.0748202 2.4259092-3.675 2.427z"/></g><path id="Shape" d="m40 34v13c.0033693 5.6881462-4.3348936 10.438544-10 10.95-.33.03-.66.05-1 .05s-.67-.02-1-.05c-5.6651064-.511456-10.0033693-5.2618538-10-10.95v-13c0-2.209139 1.790861-4 4-4h14c2.209139 0 4 1.790861 4 4z" fill="#955ba5"/><path id="Shape" d="m29 22c3.3137085 0 6 2.6862915 6 6v2h-12v-2c0-3.3137085 2.6862915-6 6-6z" fill="#894b9d"/><path id="Shape" d="m29 38c-.5522847 0-1-.4477153-1-1v-2c0-.5522847.4477153-1 1-1s1 .4477153 1 1v2c0 .5522847-.4477153 1-1 1z" fill="#894b9d"/><path id="Shape" d="m30 41v16.95c-.33.03-.66.05-1 .05s-.67-.02-1-.05v-16.95c0-.5522847.4477153-1 1-1s1 .4477153 1 1z" fill="#894b9d"/></g></g></svg>