<svg enable-background="new 0 0 60 60" height="512" viewBox="0 0 60 60" width="512" xmlns="http://www.w3.org/2000/svg"><path d="m13.002 9h-.024-7.956-.024c-2.208 0-3.998 1.79-3.998 3.998v4.002h16v-4.002c0-2.208-1.79-3.998-3.998-3.998z" fill="#a17f37"/><circle cx="30" cy="33" fill="#57abc1" r="17"/><path d="m35 35-5-2-5 2 5-10z" fill="#00788c"/><path d="m35 35-5-2-5 2 5 6z" fill="#006777"/><circle cx="9" cy="6" fill="#e4c05c" r="5"/><path d="m55.002 9h-.024-7.955-.024c-2.209 0-3.999 1.79-3.999 3.998v4.002h16v-4.002c0-2.208-1.79-3.998-3.998-3.998z" fill="#a17f37"/><circle cx="51" cy="6" fill="#e4c05c" r="5"/><path d="m13.002 51h-.024-7.956-.024c-2.208 0-3.998 1.79-3.998 3.998v4.002h16v-4.002c0-2.208-1.79-3.998-3.998-3.998z" fill="#a17f37"/><circle cx="9" cy="48" fill="#e4c05c" r="5"/><path d="m55.002 51h-.024-7.955-.024c-2.209 0-3.999 1.79-3.999 3.998v4.002h16v-4.002c0-2.208-1.79-3.998-3.998-3.998z" fill="#a17f37"/><circle cx="51" cy="48" fill="#e4c05c" r="5"/><g fill="#4d007e"><path d="m9 12c-3.308 0-6-2.691-6-6s2.692-6 6-6 6 2.691 6 6-2.692 6-6 6zm0-10c-2.206 0-4 1.794-4 4s1.794 4 4 4 4-1.794 4-4-1.794-4-4-4z"/><path d="m17 18h-16c-.552 0-1-.447-1-1v-4.002c0-2.756 2.242-4.998 4.998-4.998.313 0 .634.147.823.397.769 1.019 1.928 1.603 3.179 1.603s2.41-.584 3.179-1.603c.189-.25.485-.397.798-.397h.025c2.756 0 4.998 2.242 4.998 4.998v4.002c0 .553-.448 1-1 1zm-15-2h14v-3.002c0-1.511-1.123-2.764-2.578-2.969-1.138 1.259-2.722 1.971-4.422 1.971-1.699 0-3.282-.711-4.42-1.968-1.466.212-2.58 1.461-2.58 2.966z"/><path d="m51 12c-3.308 0-6-2.691-6-6s2.692-6 6-6 6 2.691 6 6-2.692 6-6 6zm0-10c-2.206 0-4 1.794-4 4s1.794 4 4 4 4-1.794 4-4-1.794-4-4-4z"/><path d="m59 18h-16c-.552 0-1-.447-1-1v-4.002c0-2.756 2.242-4.998 4.998-4.998.313 0 .634.147.823.397.769 1.019 1.928 1.603 3.179 1.603s2.41-.584 3.179-1.603c.189-.25.485-.397.798-.397h.025c2.756 0 4.998 2.242 4.998 4.998v4.002c0 .553-.448 1-1 1zm-15-2h14v-3.002c0-1.511-1.123-2.764-2.578-2.969-1.138 1.259-2.722 1.971-4.422 1.971-1.699 0-3.282-.711-4.42-1.968-1.466.212-2.58 1.461-2.58 2.966z"/><path d="m9 54c-3.308 0-6-2.691-6-6s2.692-6 6-6 6 2.691 6 6-2.692 6-6 6zm0-10c-2.206 0-4 1.794-4 4s1.794 4 4 4 4-1.794 4-4-1.794-4-4-4z"/><path d="m17 60h-16c-.552 0-1-.447-1-1v-4.002c0-2.756 2.242-4.998 4.998-4.998.313 0 .634.147.823.397.769 1.019 1.928 1.603 3.179 1.603s2.41-.584 3.179-1.603c.189-.25.485-.397.798-.397h.025c2.756 0 4.998 2.242 4.998 4.998v4.002c0 .553-.448 1-1 1zm-15-2h14v-3.002c0-1.511-1.123-2.764-2.578-2.969-1.138 1.259-2.722 1.971-4.422 1.971-1.699 0-3.282-.711-4.42-1.968-1.466.212-2.58 1.461-2.58 2.966z"/><path d="m51 54c-3.308 0-6-2.691-6-6s2.692-6 6-6 6 2.691 6 6-2.692 6-6 6zm0-10c-2.206 0-4 1.794-4 4s1.794 4 4 4 4-1.794 4-4-1.794-4-4-4z"/><path d="m59 60h-16c-.552 0-1-.447-1-1v-4.002c0-2.756 2.242-4.998 4.998-4.998.313 0 .634.147.823.397.769 1.019 1.928 1.603 3.179 1.603s2.41-.584 3.179-1.603c.189-.25.485-.397.798-.397h.025c2.756 0 4.998 2.242 4.998 4.998v4.002c0 .553-.448 1-1 1zm-15-2h14v-3.002c0-1.511-1.123-2.764-2.578-2.969-1.138 1.259-2.722 1.971-4.422 1.971-1.699 0-3.282-.711-4.42-1.968-1.466.212-2.58 1.461-2.58 2.966z"/><path d="m46.017 6.826c-.19 0-.381-.054-.552-.166-.807-.535-1.645-1.031-2.492-1.476-.489-.257-.677-.861-.421-1.351.257-.489.862-.674 1.35-.421.906.476 1.804 1.007 2.667 1.579.46.306.586.926.281 1.387-.191.291-.509.448-.833.448z"/><path d="m38.271 3.198c-.094 0-.19-.014-.285-.041-1.719-.512-3.498-.857-5.286-1.029-.55-.053-.953-.541-.9-1.091.053-.549.542-.966 1.091-.899 1.917.184 3.823.555 5.665 1.102.529.158.831.715.674 1.244-.131.434-.529.714-.959.714zm-16.532-.001c-.431 0-.829-.28-.958-.715-.157-.529.144-1.086.673-1.243 1.84-.548 3.746-.919 5.667-1.102.548-.064 1.038.351 1.09.9.052.55-.351 1.038-.9 1.09-1.792.171-3.57.517-5.286 1.027-.096.03-.192.043-.286.043z"/><path d="m13.983 6.826c-.324 0-.642-.157-.834-.447-.305-.461-.179-1.081.281-1.387.864-.572 1.761-1.104 2.667-1.579.488-.255 1.093-.068 1.35.421s.068 1.094-.421 1.351c-.846.444-1.685.94-2.492 1.476-.169.111-.361.165-.551.165z"/><path d="m54.885 45.89c-.175 0-.353-.046-.513-.143-.474-.284-.627-.898-.343-1.372.495-.825.952-1.685 1.358-2.556.234-.5.829-.716 1.329-.483s.717.829.483 1.329c-.436.934-.926 1.855-1.456 2.739-.187.313-.518.486-.858.486z"/><path d="m58.587 35.909c-.056 0-.113-.005-.169-.015-.544-.093-.91-.609-.818-1.153.265-1.555.4-3.151.4-4.741 0-.89-.042-1.789-.126-2.672-.052-.55.351-1.038.901-1.09.544-.071 1.038.351 1.09.9.089.947.135 1.909.135 2.862 0 1.703-.144 3.411-.429 5.077-.083.487-.506.832-.984.832z"/><path d="m57.128 20.745c-.404 0-.784-.246-.936-.646-.339-.896-.731-1.787-1.164-2.649-.248-.493-.049-1.095.444-1.343s1.094-.05 1.343.444c.464.924.884 1.88 1.248 2.841.195.517-.065 1.094-.581 1.289-.117.044-.237.064-.354.064z"/><path d="m2.872 20.745c-.117 0-.237-.021-.354-.064-.516-.195-.777-.772-.581-1.289.364-.961.783-1.917 1.248-2.841.248-.494.85-.691 1.343-.444.493.248.692.85.444 1.343-.434.862-.825 1.754-1.164 2.649-.152.4-.532.646-.936.646z"/><path d="m1.412 35.903c-.478 0-.901-.345-.985-.832-.283-1.663-.427-3.369-.427-5.071 0-.957.046-1.921.136-2.867.052-.55.537-.97 1.091-.9.55.052.953.54.901 1.09-.085.883-.128 1.783-.128 2.677 0 1.589.134 3.183.399 4.735.093.544-.273 1.061-.818 1.153-.056.01-.113.015-.169.015z"/><path d="m5.114 45.89c-.34 0-.671-.173-.859-.486-.531-.885-1.02-1.806-1.455-2.738-.233-.5-.017-1.096.483-1.329.5-.232 1.095-.017 1.329.483.406.87.863 1.729 1.358 2.557.284.474.13 1.088-.344 1.371-.16.096-.337.142-.512.142z"/><path d="m19.745 58.128c-.118 0-.238-.021-.354-.065-.966-.366-1.922-.786-2.839-1.247-.493-.248-.693-.849-.445-1.343s.848-.693 1.343-.444c.856.431 1.749.822 2.651 1.165.516.195.776.772.58 1.289-.152.399-.533.645-.936.645z"/><path d="m30 60c-1.204 0-2.418-.072-3.61-.216-.548-.066-.939-.564-.874-1.112.066-.549.565-.937 1.112-.874 2.223.267 4.514.269 6.728.002.55-.062 1.046.326 1.112.874.066.549-.325 1.046-.874 1.112-1.183.142-2.393.214-3.594.214z"/><path d="m40.255 58.128c-.404 0-.784-.246-.935-.646-.196-.517.064-1.094.58-1.289.902-.343 1.794-.734 2.651-1.165.493-.249 1.094-.05 1.343.444s.049 1.095-.445 1.343c-.918.461-1.873.881-2.839 1.247-.117.045-.237.066-.355.066z"/><path d="m30 51c-9.925 0-18-8.075-18-18s8.075-18 18-18 18 8.075 18 18-8.075 18-18 18zm0-34c-8.823 0-16 7.178-16 16s7.177 16 16 16 16-7.178 16-16-7.177-16-16-16z"/><path d="m17 34c-.552 0-1-.447-1-1 0-7.72 6.28-14 14-14 .552 0 1 .447 1 1s-.448 1-1 1c-6.617 0-12 5.383-12 12 0 .553-.448 1-1 1z"/><path d="m30 47c-.552 0-1-.447-1-1s.448-1 1-1c6.617 0 12-5.383 12-12 0-.553.448-1 1-1s1 .447 1 1c0 7.72-6.28 14-14 14z"/><path d="m35 36c-.125 0-.251-.023-.371-.071l-4.629-1.852-4.629 1.852c-.385.152-.826.053-1.107-.252s-.344-.753-.159-1.124l5-10c.339-.678 1.45-.678 1.789 0l5 10c.186.371.123.819-.159 1.124-.192.21-.461.323-.735.323zm-5-4c.126 0 .252.023.371.071l2.558 1.023-2.929-5.858-2.929 5.858 2.558-1.023c.119-.048.245-.071.371-.071z"/><path d="m30 42c-.297 0-.578-.132-.768-.359l-5-6c-.205-.246-.28-.575-.201-.886s.301-.564.598-.684l5-2c.238-.096.504-.096.743 0l5 2c.297.119.52.373.598.684s.004.64-.201.886l-5 6c-.191.227-.472.359-.769.359zm-3.351-6.583 3.351 4.021 3.351-4.021-3.351-1.34z"/></g></svg>