<?xml version="1.0" encoding="iso-8859-1"?>
<!-- Generator: Adobe Illustrator 19.0.0, SVG Export Plug-In . SVG Version: 6.00 Build 0)  -->
<svg version="1.1" id="Capa_1" xmlns="http://www.w3.org/2000/svg" xmlns:xlink="http://www.w3.org/1999/xlink" x="0px" y="0px"
	 viewBox="0 0 512.037 512.037" style="enable-background:new 0 0 512.037 512.037;" xml:space="preserve">
<g transform="translate(-1 -1)">
	<g transform="translate(2 2)">
		<path style="fill:#A4C2F7;" d="M468.351,255.037c0.008,56.582-22.465,110.849-62.475,150.859S311.6,468.379,255.018,468.37
			c-4.267,0-8.533-0.085-12.8-0.427c-112.64-6.749-200.533-100.065-200.533-212.907S129.578,48.879,242.218,42.13
			c4.267-0.341,8.533-0.427,12.8-0.427c56.582-0.008,110.849,22.465,150.859,62.475S468.359,198.455,468.351,255.037z"/>
		<g>
			<path style="fill:#E3E7F2;" d="M442.751,255.037c0.024,13.575-1.262,27.12-3.84,40.448
				c-18.48,95.663-99.435,166.644-196.693,172.459c-112.64-6.749-200.533-100.065-200.533-212.907S129.578,48.879,242.218,42.13
				c26.496,1.524,52.466,8.038,76.544,19.2C394.376,96.141,442.8,171.794,442.751,255.037z"/>
			<path style="fill:#E3E7F2;" d="M193.492,117.565c-9.472,15.787-1.621,34.73,4.864,51.541c2.907,5.441,3.668,11.774,2.133,17.749
				c-2.445,4.786-6.166,8.803-10.752,11.605c-12.459,9.643-24.946,19.2-37.461,28.672c-9.267,6.195-17.118,14.279-23.04,23.723
				c-9.899,19.029,0.256,41.472-4.011,62.037c-2.475,11.605-30.891,45.653-45.312,63.915
				c-39.331-56.496-48.967-128.505-25.872-193.353S130.12,68.897,196.308,49.981l0.085,0.256
				c16.394,11.793,20.737,34.33,9.899,51.371C201.738,106.689,197.465,112.016,193.492,117.565z"/>
		</g>
		<path style="fill:#A4C2F7;" d="M468.351,255.037c0.027,15.47-1.662,30.896-5.035,45.995h-0.085
			c-8.528,2.06-17.528,0.007-24.32-5.547c18.532-96.39-31.039-192.998-120.149-234.155c2.288-2.657,4.8-5.113,7.509-7.339
			C411.454,84.121,468.387,164.682,468.351,255.037z"/>
		<path style="fill:#E3E7F2;" d="M442.751,255.037c0.024,13.575-1.262,27.12-3.84,40.448c-0.512-0.341-1.024-0.768-1.451-1.109
			c-11.179-9.216-20.395-22.869-36.864-20.736c-9.367,1.597-17.549,7.25-22.357,15.445c-13.909,22.443-6.741,51.029-18.432,73.643
			c-6.812,11.254-15.807,21.031-26.453,28.757c-0.085,0.085-0.256,0.171-0.341,0.341c-6.26,4.998-14.935,5.673-21.893,1.705
			c-6.958-3.968-10.794-11.778-9.68-19.71c2.511-20.148-2.737-40.496-14.677-56.917c-9.557-12.885-23.808-24.661-23.723-40.619
			c0.256-21.589,26.368-34.645,43.52-42.069c9.369-3.853,17.324-10.497,22.784-19.029c15.36-25.685-8.448-45.739-20.48-67.328
			c-14.836-28.129-10.907-62.477,9.899-86.528C394.376,96.141,442.8,171.794,442.751,255.037z"/>
		<path style="fill:#4FBA6F;" d="M326.271,53.992l0.085-0.085c0.171-0.085,0.341-0.256,0.512-0.341"/>
		<path style="fill:#E3E7F2;" d="M273.108,467.517c-5.973,0.597-12.032,0.853-18.091,0.853
			c-48.57,0.073-95.701-16.491-133.547-46.933l33.877-24.917c4.844-3.574,10.806-5.299,16.811-4.864
			c12.8,1.451,21.504,14.507,33.792,18.261c9.643,2.987,19.883-0.085,29.867,0.341c2.007,0.058,3.981,0.522,5.803,1.365
			c1.879,1.065,3.509,2.52,4.779,4.267C258.346,431.25,260.906,452.498,273.108,467.517z"/>
		<path style="fill:#A4C2F7;" d="M502.484,109.97c-0.004,42.414-34.386,76.796-76.8,76.8c-4.287,0.005-8.568-0.337-12.8-1.024
			c-36.957-6.273-63.998-38.29-63.998-75.776s27.041-69.503,63.998-75.776c4.232-0.687,8.513-1.029,12.8-1.024
			C468.098,33.174,502.481,67.556,502.484,109.97z"/>
		<path style="fill:#E3E7F2;" d="M476.884,109.97c0.04,12.468-3.009,24.752-8.875,35.755
			c-11.072,21.131-31.358,35.896-54.869,39.936c-0.068,0.066-0.162,0.097-0.256,0.085c-1.583-0.251-3.15-0.593-4.693-1.024
			c-1.365-0.341-2.731-0.768-4.096-1.109c-34.336-10.056-57.179-42.491-55.078-78.208c2.101-35.717,28.589-65.25,63.867-71.211
			C449.84,40.47,476.88,72.486,476.884,109.97z"/>
		<path style="fill:#D4E1F4;" d="M468.351,151.272c0.06,9.928-3.182,19.594-9.216,27.477c-10.349,5.31-21.819,8.06-33.451,8.021
			c-4.207,0.019-8.406-0.352-12.544-1.109c23.511-4.04,43.797-18.805,54.869-39.936
			C468.253,147.564,468.367,149.417,468.351,151.272z"/>
		<g>
			<path style="fill:#FFFFFF;" d="M468.01,145.725c-11.072,21.131-31.358,35.896-54.869,39.936
				c-1.621-0.256-3.328-0.597-4.949-0.939c-1.365-0.341-2.731-0.768-4.096-1.109c-4.09-1.266-8.06-2.894-11.861-4.864
				c-8.354-11.014-11.227-25.237-7.804-38.63c3.423-13.393,12.769-24.493,25.383-30.148h0.085c9.102,7.737,22.471,7.737,31.573,0
				h0.085C456.127,116.308,466.21,129.937,468.01,145.725z"/>
			<path style="fill:#FFFFFF;" d="M451.284,92.904c0.057,7.835-3.539,15.248-9.728,20.053h-0.085
				c-9.225,7.396-22.348,7.396-31.573,0h-0.085c-6.189-4.805-9.785-12.219-9.728-20.053c0-14.138,11.462-25.6,25.6-25.6
				S451.284,78.765,451.284,92.904z"/>
		</g>
		<path style="fill:#A4C2F7;" d="M161.151,425.704c-0.004,42.414-34.386,76.796-76.8,76.8c-4.287,0.005-8.568-0.337-12.8-1.024
			c-36.957-6.273-63.998-38.29-63.998-75.776s27.041-69.503,63.998-75.776c4.232-0.687,8.513-1.029,12.8-1.024
			C126.765,348.907,161.147,383.29,161.151,425.704z"/>
		<path style="fill:#E3E7F2;" d="M135.551,425.704c0.04,12.468-3.009,24.752-8.875,35.755
			c-11.072,21.131-31.358,35.896-54.869,39.936c-0.068,0.066-0.162,0.097-0.256,0.085c-1.583-0.251-3.15-0.593-4.693-1.024
			c-1.365-0.341-2.731-0.768-4.096-1.109c-34.336-10.056-57.179-42.491-55.078-78.208s28.589-65.25,63.867-71.211
			C108.506,356.203,135.547,388.219,135.551,425.704z"/>
		<path style="fill:#D4E1F4;" d="M127.018,467.005c0.06,9.928-3.182,19.594-9.216,27.477c-10.349,5.31-21.819,8.06-33.451,8.021
			c-4.207,0.019-8.406-0.352-12.544-1.109c23.511-4.04,43.797-18.805,54.869-39.936C126.92,463.297,127.034,465.15,127.018,467.005z
			"/>
		<g>
			<path style="fill:#FFFFFF;" d="M126.676,461.458c-11.072,21.131-31.358,35.896-54.869,39.936
				c-1.621-0.256-3.328-0.597-4.949-0.939c-1.365-0.341-2.731-0.768-4.096-1.109c-4.09-1.266-8.06-2.894-11.861-4.864
				c-8.354-11.014-11.227-25.237-7.804-38.63c3.423-13.393,12.769-24.493,25.383-30.148h0.085c9.102,7.737,22.471,7.737,31.573,0
				h0.085C114.794,432.042,124.877,445.671,126.676,461.458z"/>
			<path style="fill:#FFFFFF;" d="M109.951,408.637c0.057,7.835-3.539,15.248-9.728,20.053h-0.085
				c-9.225,7.396-22.348,7.396-31.573,0h-0.085c-6.188-4.805-9.785-12.219-9.728-20.053c0-14.138,11.462-25.6,25.6-25.6
				S109.951,394.498,109.951,408.637z"/>
		</g>
		<path style="fill:#A4C2F7;" d="M161.151,84.37c-0.004,42.414-34.386,76.796-76.8,76.8c-4.287,0.005-8.568-0.337-12.8-1.024
			c-36.957-6.273-63.998-38.29-63.998-75.776S34.594,14.867,71.551,8.594c4.232-0.687,8.513-1.029,12.8-1.024
			C126.765,7.574,161.147,41.956,161.151,84.37z"/>
		<path style="fill:#E3E7F2;" d="M135.551,84.37c0.04,12.468-3.009,24.752-8.875,35.755c-11.072,21.131-31.358,35.896-54.869,39.936
			c-0.068,0.066-0.162,0.097-0.256,0.085c-1.583-0.251-3.15-0.593-4.693-1.024c-1.365-0.341-2.731-0.768-4.096-1.109
			C28.425,147.957,5.582,115.522,7.683,79.805s28.589-65.25,63.867-71.211C108.506,14.87,135.547,46.886,135.551,84.37z"/>
		<path style="fill:#D4E1F4;" d="M127.018,125.672c0.06,9.928-3.182,19.594-9.216,27.477c-10.349,5.31-21.819,8.06-33.451,8.021
			c-4.207,0.019-8.406-0.352-12.544-1.109c23.511-4.04,43.797-18.805,54.869-39.936C126.92,121.964,127.034,123.817,127.018,125.672
			z"/>
		<g>
			<path style="fill:#FFFFFF;" d="M126.676,120.125c-11.072,21.131-31.358,35.896-54.869,39.936
				c-1.621-0.256-3.328-0.597-4.949-0.939c-1.365-0.341-2.731-0.768-4.096-1.109c-4.09-1.266-8.06-2.894-11.861-4.864
				c-8.354-11.014-11.227-25.237-7.804-38.63c3.423-13.393,12.769-24.493,25.383-30.148h0.085c9.102,7.737,22.471,7.737,31.573,0
				h0.085C114.794,90.708,124.877,104.337,126.676,120.125z"/>
			<path style="fill:#FFFFFF;" d="M109.951,67.304c0.057,7.835-3.539,15.248-9.728,20.053h-0.085
				c-9.225,7.396-22.348,7.396-31.573,0h-0.085c-6.188-4.805-9.785-12.219-9.728-20.053c0-14.138,11.462-25.6,25.6-25.6
				S109.951,53.165,109.951,67.304z"/>
		</g>
		<path style="fill:#FFFFFF;" d="M53.303,477.477c-0.281-0.306-0.573-0.601-0.849-0.912c-0.981-1.109-1.91-2.259-2.826-3.424
			c-0.41-0.519-0.824-1.031-1.22-1.56c-0.799-1.07-1.557-2.169-2.3-3.282c-0.454-0.678-0.903-1.356-1.335-2.049
			c-0.652-1.045-1.273-2.108-1.876-3.187c-0.454-0.811-0.892-1.632-1.316-2.461c-0.526-1.029-1.034-2.065-1.515-3.119
			c-0.426-0.934-0.821-1.882-1.21-2.835c-0.411-1.008-0.817-2.016-1.185-3.045c-0.379-1.055-0.711-2.129-1.045-3.205
			c-0.302-0.979-0.614-1.95-0.878-2.945c-0.316-1.189-0.57-2.4-0.83-3.61c-0.198-0.926-0.421-1.841-0.585-2.778
			c-0.247-1.405-0.414-2.836-0.583-4.267c-0.092-0.775-0.223-1.538-0.292-2.32c-0.195-2.233-0.306-4.49-0.306-6.773
			c0.003-34.848,23.449-65.334,57.129-74.281c-0.189-0.373-0.366-0.752-0.553-1.126c-0.266-0.531-0.523-1.066-0.785-1.6
			c-4.286-8.758-7.963-17.802-11.003-27.066c-0.319-0.971-0.642-1.937-0.947-2.914c-1.387-4.442-2.648-8.937-3.748-13.499
			c-0.208-0.864-0.381-1.741-0.579-2.609c-0.943-4.14-1.764-8.323-2.463-12.55c-0.138-0.833-0.301-1.656-0.429-2.493
			c-0.719-4.705-1.261-9.466-1.668-14.267c-0.092-1.082-0.162-2.168-0.238-3.256c-0.345-4.963-0.582-9.956-0.582-15.007
			c0-5.534,0.272-11.002,0.686-16.43c0.067-0.88,0.116-1.763,0.193-2.64c0.458-5.17,1.112-10.281,1.932-15.339
			c0.157-0.968,0.328-1.929,0.497-2.893c0.899-5.103,1.943-10.155,3.198-15.125c0.144-0.57,0.315-1.128,0.463-1.696
			c1.269-4.856,2.702-9.643,4.299-14.36c0.171-0.506,0.321-1.02,0.496-1.525c1.675-4.825,3.551-9.551,5.555-14.211
			c0.362-0.843,0.721-1.685,1.094-2.522c1.452-3.258,2.979-6.473,4.582-9.645c-14.228-3.803-27.063-11.615-36.977-22.507
			c-0.281-0.306-0.573-0.601-0.849-0.912c-0.981-1.109-1.91-2.259-2.826-3.423c-0.41-0.519-0.824-1.031-1.22-1.56
			c-0.799-1.07-1.557-2.169-2.3-3.282c-0.454-0.678-0.903-1.356-1.335-2.049c-0.652-1.045-1.273-2.108-1.876-3.187
			c-0.454-0.811-0.892-1.632-1.316-2.461c-0.526-1.029-1.034-2.065-1.515-3.119c-0.426-0.934-0.821-1.882-1.21-2.835
			c-0.411-1.008-0.817-2.016-1.185-3.045c-0.379-1.055-0.711-2.129-1.045-3.205c-0.302-0.979-0.614-1.95-0.878-2.945
			c-0.316-1.189-0.57-2.4-0.83-3.61c-0.198-0.926-0.421-1.841-0.585-2.778c-0.247-1.405-0.414-2.836-0.583-4.267
			c-0.092-0.776-0.223-1.538-0.292-2.32c-0.195-2.233-0.306-4.49-0.306-6.773c0.005-37.425,26.965-69.407,63.85-75.744
			c-4.181-0.699-8.412-1.053-12.65-1.056c-4.287-0.005-8.568,0.337-12.8,1.024c-36.955,6.276-63.996,38.291-64,75.776
			c0,2.283,0.111,4.54,0.306,6.773c0.069,0.782,0.2,1.545,0.292,2.32c0.169,1.431,0.336,2.861,0.583,4.267
			c0.165,0.938,0.387,1.853,0.585,2.778c0.26,1.21,0.514,2.422,0.83,3.61c0.264,0.995,0.576,1.967,0.878,2.945
			c0.333,1.076,0.666,2.15,1.045,3.205c0.368,1.029,0.774,2.036,1.185,3.045c0.389,0.953,0.784,1.902,1.21,2.835
			c0.481,1.055,0.989,2.091,1.515,3.119c0.425,0.83,0.864,1.65,1.316,2.461c0.602,1.079,1.224,2.142,1.876,3.187
			c0.433,0.693,0.882,1.371,1.335,2.049c0.743,1.112,1.501,2.211,2.3,3.282c0.396,0.529,0.811,1.041,1.22,1.56
			c0.917,1.164,1.845,2.315,2.826,3.423c0.276,0.311,0.569,0.606,0.849,0.912c9.913,10.892,22.748,18.704,36.977,22.507
			c-1.607,3.169-3.134,6.384-4.582,9.645c-0.373,0.837-0.732,1.68-1.094,2.522c-2.004,4.66-3.88,9.387-5.555,14.211
			c-0.175,0.504-0.325,1.019-0.496,1.524c-1.597,4.715-3.03,9.501-4.299,14.36c-0.148,0.568-0.319,1.126-0.463,1.696
			c-1.255,4.97-2.299,10.022-3.198,15.125c-0.17,0.964-0.341,1.925-0.497,2.893c-0.82,5.058-1.474,10.169-1.932,15.339
			c-0.078,0.877-0.127,1.76-0.193,2.64c-0.413,5.427-0.686,10.895-0.686,16.43c0,5.051,0.237,10.044,0.582,15.007
			c0.076,1.087,0.146,2.173,0.238,3.256c0.407,4.801,0.949,9.561,1.668,14.267c0.128,0.837,0.291,1.66,0.429,2.493
			c0.698,4.227,1.519,8.41,2.463,12.55c0.198,0.868,0.371,1.745,0.579,2.609c1.1,4.561,2.361,9.057,3.748,13.499
			c0.305,0.977,0.629,1.943,0.947,2.914c3.041,9.265,6.717,18.308,11.004,27.067c0.262,0.533,0.519,1.069,0.785,1.599
			c0.187,0.374,0.364,0.753,0.553,1.126C31,360.37,7.554,390.856,7.551,425.704c0,2.283,0.111,4.54,0.306,6.773
			c0.069,0.782,0.2,1.545,0.292,2.32c0.169,1.431,0.336,2.862,0.583,4.267c0.165,0.938,0.387,1.853,0.585,2.778
			c0.26,1.21,0.514,2.422,0.83,3.61c0.264,0.995,0.576,1.967,0.878,2.945c0.333,1.076,0.666,2.15,1.045,3.205
			c0.368,1.029,0.774,2.036,1.185,3.045c0.389,0.953,0.784,1.902,1.21,2.835c0.481,1.055,0.989,2.091,1.515,3.119
			c0.425,0.83,0.864,1.65,1.316,2.461c0.602,1.079,1.224,2.142,1.876,3.187c0.433,0.693,0.882,1.371,1.335,2.049
			c0.743,1.112,1.501,2.211,2.3,3.282c0.396,0.529,0.811,1.041,1.22,1.56c0.917,1.164,1.845,2.315,2.826,3.424
			c0.276,0.311,0.569,0.606,0.849,0.912c11.527,12.67,26.962,21.12,43.848,24.003c4.232,0.687,8.513,1.029,12.8,1.024
			c2.86-0.01,5.716-0.178,8.557-0.504c0.448-0.051,0.883-0.143,1.329-0.203c0.811-0.104,1.59-0.3,2.392-0.429
			C79.945,498.406,64.712,490.005,53.303,477.477z"/>
	</g>
	<path style="fill:#428DFF;" d="M427.684,26.637c-26.712,0.024-51.866,12.58-67.94,33.915c-8.164-4.284-16.59-8.05-25.228-11.274
		c-1.594-1.443-3.681-2.219-5.831-2.167c-42.856-14.654-89.168-15.849-132.722-3.424c-10.386,2.982-20.535,6.734-30.363,11.224
		C151.576,19.461,115.726-2.375,77.792,1.428S9.056,33.749,2.348,71.279s12.307,74.952,46.575,91.66
		c0.244,0.134,0.495,0.255,0.751,0.363c1.734,0.83,3.482,1.626,5.278,2.34c-26.4,58.071-26.401,124.721-0.001,182.792
		c-31.43,12.395-52.564,42.193-53.87,75.953s17.463,65.101,47.842,79.887c0.244,0.134,0.495,0.255,0.751,0.363
		c23.168,11.203,50.186,11.203,73.354,0c0.256-0.108,0.507-0.229,0.751-0.363c19.061-9.354,33.972-25.45,41.843-45.17
		c28.711,13.022,59.869,19.772,91.395,19.801c6.588,0,12.958-0.3,18.796-0.875c67.708-5.618,129.087-42.015,166.495-98.73
		s46.7-127.467,25.207-191.919c34.689-18.298,52.431-57.893,42.997-95.961C501.08,53.35,466.904,26.621,427.684,26.637z
		 M390.256,188.539c0.244,0.134,0.495,0.255,0.751,0.363c18.903,9.143,40.539,10.894,60.666,4.909
		c6.673,20.414,10.096,41.749,10.144,63.226c-0.003,12.883-1.239,25.737-3.69,38.385c-4.865-0.562-9.467-2.506-13.261-5.602
		c-2.246-1.867-4.404-3.925-6.575-5.983c-8.85-8.4-19.904-18.883-36.804-16.658c-11.915,1.858-22.365,8.971-28.462,19.375
		c-7.079,13.079-11.032,27.62-11.55,42.483c-0.462,10.976-2.932,21.774-7.287,31.858c-6.427,10.273-14.778,19.206-24.596,26.308
		c-3.23,2.848-7.91,3.337-11.658,1.217c-4.212-2.28-6.588-6.916-5.979-11.667c2.688-22.288-3.143-44.769-16.325-62.942
		c-2.396-3.225-5.063-6.375-7.742-9.542c-7.375-8.708-14.346-16.933-14.279-25.925c0.175-15.917,21.979-27.217,38.458-34.383
		c10.986-4.485,20.286-12.309,26.583-22.367c14.712-24.567,0.296-45.275-11.292-61.925c-3.358-4.817-6.525-9.375-9.096-13.958
		c-13.673-26.4-8.869-58.592,11.915-79.85c7.051,2.703,13.946,5.798,20.652,9.271C330.405,117.336,348.056,168.107,390.256,188.539z
		 M393.551,154.637c0.026-12.486,6.86-23.963,17.824-29.936c10.107,5.783,22.521,5.781,32.627-0.004
		c10.961,5.977,17.791,17.455,17.816,29.94c0.01,7.049-2.212,13.921-6.348,19.629c-0.417,0.187-0.81,0.416-1.231,0.594l-0.067,0.01
		l-0.06,0.037c-17.376,7.323-37.015,7.091-54.213-0.641C395.763,168.558,393.541,161.686,393.551,154.637z M427.684,111.97
		c-9.426,0-17.067-7.641-17.067-17.067s7.641-17.067,17.067-17.067s17.067,7.641,17.067,17.067
		C444.74,104.325,437.105,111.959,427.684,111.97z M18.084,86.37c-0.07-30.429,20.007-57.23,49.229-65.716
		s60.531,3.393,76.77,29.127s13.486,59.108-6.751,81.832c0.044-0.863,0.218-1.709,0.218-2.576
		c-0.023-16.803-8.308-32.519-22.158-42.032c3.303-5.315,5.066-11.443,5.092-17.701c0-18.851-15.282-34.133-34.133-34.133
		S52.218,50.452,52.218,69.304c0.025,6.258,1.788,12.386,5.092,17.701c-13.85,9.513-22.136,25.23-22.158,42.032
		c0,0.867,0.175,1.713,0.218,2.576C24.243,119.169,18.09,103.063,18.084,86.37z M86.351,154.637
		c-9.58-0.004-19.05-2.039-27.785-5.971c-4.136-5.709-6.358-12.58-6.348-19.629c0.026-12.486,6.86-23.963,17.824-29.936
		c10.107,5.783,22.521,5.781,32.627-0.004c10.961,5.977,17.791,17.455,17.816,29.94c0.01,7.049-2.212,13.921-6.348,19.629
		C105.4,152.598,95.931,154.633,86.351,154.637z M86.351,86.37c-9.426,0-17.067-7.641-17.067-17.067s7.641-17.067,17.067-17.067
		s17.067,7.641,17.067,17.067C103.407,78.725,95.772,86.359,86.351,86.37z M52.218,257.037c0.03-29.971,6.647-59.569,19.382-86.7
		c17.454,3.205,35.476,0.739,51.429-7.036c0.256-0.108,0.507-0.229,0.751-0.363c34.27-16.466,53.323-53.791,46.557-91.204
		c8.352-3.955,16.968-7.328,25.785-10.096c10.476,9.365,12.727,24.894,5.342,36.848c-1.488,1.983-3.154,3.85-4.808,5.717
		c-3.18,3.368-6.02,7.041-8.479,10.967c-11.308,18.859-3.05,40.208,3.583,57.367l0.663,1.717c1.928,3.517,2.666,7.563,2.104,11.533
		c-2.012,3.232-4.755,5.947-8.008,7.925c-12.433,9.625-24.867,19.158-37.521,28.725l-0.704,0.55
		c-9.973,6.78-18.372,15.624-24.629,25.933c-5.458,12.663-7.071,26.652-4.638,40.225c1.075,7.956,1.026,16.024-0.146,23.967
		c-3.425,11.261-9.042,21.733-16.529,30.815c-10.146-2.009-20.581-2.074-30.751-0.191C58.865,316.606,52.248,287.008,52.218,257.037
		z M58.565,489.999c-4.136-5.708-6.358-12.58-6.348-19.629c0.026-12.486,6.86-23.963,17.824-29.936
		c10.107,5.783,22.521,5.781,32.627-0.004c10.961,5.977,17.791,17.455,17.816,29.94c0.01,7.049-2.212,13.921-6.348,19.629
		C96.468,497.961,76.234,497.961,58.565,489.999z M86.351,427.704c-9.426,0-17.067-7.641-17.067-17.067s7.641-17.067,17.067-17.067
		s17.067,7.641,17.067,17.067C103.407,420.058,95.772,427.693,86.351,427.704z M137.333,472.946
		c0.044-0.863,0.218-1.709,0.218-2.576c-0.023-16.803-8.308-32.519-22.158-42.032c3.303-5.315,5.066-11.443,5.092-17.701
		c0-18.851-15.282-34.133-34.133-34.133s-34.133,15.282-34.133,34.133c0.025,6.258,1.788,12.386,5.092,17.701
		c-13.85,9.513-22.136,25.23-22.158,42.032c0,0.867,0.175,1.713,0.218,2.576c-24.393-27.392-22.781-69.163,3.65-94.594
		s68.233-25.431,94.664,0S161.726,445.555,137.333,472.946z M170.318,442.46c2.428-13.24,1.612-26.872-2.38-39.728
		c1.694-0.552,3.483-0.758,5.258-0.604c5.432,1.358,10.439,4.051,14.566,7.834c5.26,4.366,11.238,7.786,17.667,10.108
		c7.202,1.833,14.695,2.229,22.05,1.167c3.201-0.376,6.424-0.532,9.646-0.467c0.906,0.036,1.804,0.196,2.667,0.475
		c0.73,0.509,1.364,1.144,1.871,1.875c5.02,7.232,9.023,15.12,11.895,23.442c2.032,5.061,4.128,10.203,6.642,15.202
		c-1.068,0.017-2.1,0.073-3.183,0.073C227.036,461.909,197.416,455.29,170.318,442.46z M279.111,460.389
		c-3.894-6.393-7.148-13.154-9.715-20.186c-3.448-9.855-8.278-19.17-14.346-27.667c-3.888-5.464-10.157-8.736-16.862-8.8
		c-4.058-0.101-8.118,0.064-12.154,0.492c-5.18,0.802-10.464,0.644-15.588-0.467c-4.543-1.808-8.764-4.338-12.5-7.492
		c-6.458-5.699-14.345-9.534-22.817-11.092c-4.674-0.469-9.392,0.17-13.772,1.865c-9.255-16.99-23.977-30.357-41.778-37.934
		c7.451-9.648,12.892-20.693,16-32.48c1.557-9.56,1.71-19.296,0.454-28.9c-1.969-10.393-0.998-21.129,2.804-31
		c5.224-8.064,12.033-14.981,20.012-20.333l0.567-0.45c12.575-9.492,25.049-19.039,37.421-28.642
		c5.897-3.706,10.611-9.02,13.588-15.316c2.373-7.963,1.619-16.532-2.108-23.958l-0.642-1.65
		c-5.842-15.108-11.883-30.725-4.829-42.492c1.934-2.985,4.137-5.785,6.583-8.367c1.967-2.217,3.929-4.442,5.875-7.058
		c10.389-15.811,9.939-36.393-1.129-51.736c32.516-6.93,66.231-5.823,98.222,3.224c-21.666,26.699-25.219,63.784-9.018,94.112
		c2.971,5.3,6.529,10.417,9.971,15.358c12.217,17.55,19.267,29.033,10.625,43.467c-4.573,6.927-11.125,12.316-18.804,15.467
		c-13.213,5.742-48.313,20.992-48.629,49.842c-0.113,15.342,9.683,26.908,18.325,37.108c2.442,2.883,4.879,5.75,7.087,8.717
		c10.603,14.706,15.26,32.874,13.038,50.867c-1.339,11.649,4.527,22.944,14.825,28.55c9.842,5.421,22.007,4.215,30.592-3.033
		c0.179-0.15,0.533-0.475,0.7-0.633c11.442-8.319,21.058-18.895,28.254-31.075c5.379-11.919,8.459-24.746,9.079-37.808
		c0.342-12.296,3.439-24.359,9.062-35.3c3.434-6.014,9.341-10.211,16.15-11.475c8.492-1.175,14.225,3.883,22.892,12.109
		c2.442,2.317,4.887,4.625,7.475,6.775c5.793,4.709,12.694,7.858,20.048,9.148C431.236,392.484,362.11,451.055,279.111,460.389z
		 M478.666,157.213c0.044-0.863,0.218-1.709,0.218-2.576c-0.023-16.803-8.308-32.519-22.158-42.032
		c3.303-5.315,5.066-11.443,5.092-17.701c0-18.851-15.282-34.133-34.133-34.133s-34.133,15.282-34.133,34.133
		c0.025,6.258,1.788,12.386,5.092,17.701c-13.85,9.513-22.136,25.23-22.158,42.032c0,0.867,0.175,1.713,0.218,2.576
		c-24.393-27.392-22.781-69.163,3.65-94.594c26.431-25.431,68.233-25.431,94.664,0C501.447,88.05,503.059,129.821,478.666,157.213z"
		/>
</g>
<g>
</g>
<g>
</g>
<g>
</g>
<g>
</g>
<g>
</g>
<g>
</g>
<g>
</g>
<g>
</g>
<g>
</g>
<g>
</g>
<g>
</g>
<g>
</g>
<g>
</g>
<g>
</g>
<g>
</g>
</svg>
