<svg id="Layer_5" enable-background="new 0 0 64 64" height="512" viewBox="0 0 64 64" width="512" xmlns="http://www.w3.org/2000/svg" xmlns:xlink="http://www.w3.org/1999/xlink"><linearGradient id="SVGID_1_" gradientUnits="userSpaceOnUse" x1="32.029" x2="32.029" y1="63" y2="1"><stop offset="0" stop-color="#9f2fff"/><stop offset="1" stop-color="#0bb1d3"/></linearGradient><path d="m16.382 31-3.562 7.125 8.7 10.875h2.961l8.7-10.875-3.563-7.125zm8.274 8-1.656 5.52-1.656-5.52zm-3.038-2 1.382-2.764 1.382 2.764zm3-4h2.764l-1.382 2.764zm-4.618 2.764-1.382-2.764h2.764zm-1.618 1.236h-2.764l1.382-2.764zm.874 2 1.905 6.351-5.08-6.351zm7.488 0h3.175l-5.08 6.351zm.874-2 1.382-2.764 1.382 2.764zm30.382 6.386v-2.386h-2v2.096c-.658-.061-1.329-.096-2-.096-4.473 0-9 1.374-9 4v1.4c-.307-.163-.641-.313-1-.448v-31.952h-2.942l8.942-11.382 8.942 11.382h-2.942v19h2v-17h5.058l-13.058-16.618-11.815 15.037c-.858-.876-2.04-1.419-3.354-1.419h-.831v-3c0-6.065-4.935-11-11-11s-11 4.935-11 11v3h-.831c-2.332 0-4.288 1.672-4.65 3.975l-5.462 34.587c-.037.241-.057.485-.057.729 0 2.597 2.112 4.709 4.709 4.709h23.291c0 2.626 4.527 4 9 4 3.202 0 6.423-.708 8-2.072 1.577 1.364 4.798 2.072 8 2.072 4.473 0 9-1.374 9-4v-12c0-1.82-2.176-3.037-5-3.614zm-23 3.829c-3.293.478-6 1.756-6 3.785v2h-17c-.552 0-1-.448-1-1v-22c0-.552.448-1 1-1h22c.552 0 1 .448 1 1zm-4 6.385c.578.307 1.254.566 2 .772v1.914c-1.311-.442-2-.98-2-1.286zm4 1.185c.65.094 1.321.158 2 .19v1.999c-.729-.035-1.399-.105-2-.203zm2 4.19v1.999c-.729-.035-1.399-.105-2-.203v-1.986c.65.094 1.321.158 2 .19zm2 0c.679-.031 1.35-.095 2-.19v1.986c-.601.098-1.271.168-2 .203zm0-2.001v-1.999c.679-.031 1.35-.095 2-.19v1.986c-.601.098-1.271.168-2 .203zm4-2.602c.746-.207 1.422-.465 2-.772v1.4c0 .306-.689.844-2 1.286zm4-.772c.578.307 1.254.566 2 .772v1.914c-1.311-.442-2-.98-2-1.286zm4 1.185c.65.094 1.321.158 2 .19v1.999c-.729-.035-1.399-.105-2-.203zm2 4.19v1.999c-.729-.035-1.399-.105-2-.203v-1.986c.65.094 1.321.158 2 .19zm2 0c.679-.031 1.35-.095 2-.19v1.986c-.601.098-1.271.168-2 .203zm0-2.001v-1.999c.679-.031 1.35-.095 2-.19v1.986c-.601.098-1.271.168-2 .203zm0-4v-1.999c.679-.031 1.35-.095 2-.19v1.986c-.601.098-1.271.168-2 .203zm-2 0c-.729-.035-1.399-.105-2-.203v-1.986c.65.094 1.321.158 2 .19zm-4-.688c-1.311-.442-2-.98-2-1.286v-1.4c.578.307 1.254.566 2 .772zm-4-1.286c0 .58-2.453 2-7 2s-7-1.42-7-2 2.453-2 7-2 7 1.42 7 2zm-3-33v16.923l-2.518-15.947c-.054-.342-.153-.665-.273-.976zm-19-15c4.963 0 9 4.037 9 9v9h-2v-9c0-3.859-3.141-7-7-7s-7 3.141-7 7v9h-2v-9c0-4.963 4.037-9 9-9zm5 12h-10v-3c0-2.757 2.243-5 5-5s5 2.243 5 5zm-22.291 42c-1.494 0-2.709-1.215-2.709-2.709 0-.143.012-.285.032-.422l5.462-34.583c.208-1.324 1.334-2.286 2.675-2.286h.831v4h-2v2h10v-2h-2v-4h10v4h-2v2h10v-2h-2v-4h.831c1.341 0 2.467.962 2.676 2.287l4.435 28.088c-1.235-.247-2.59-.375-3.942-.375-.334 0-.667.01-1 .025v-17.025c0-1.654-1.346-3-3-3h-22c-1.654 0-3 1.346-3 3v22c0 1.654 1.346 3 3 3h17v2zm25.291 2v-1.4c.578.307 1.254.566 2 .772v1.914c-1.311-.442-2-.98-2-1.286zm12 1.286v-1.914c.746-.207 1.422-.465 2-.772v1.4c0 .306-.689.844-2 1.286zm4-1.286v-1.4c.578.307 1.254.566 2 .772v1.914c-1.311-.442-2-.98-2-1.286zm12 1.286v-1.914c.746-.207 1.422-.465 2-.772v1.4c0 .306-.689.844-2 1.286zm0-4v-1.914c.746-.207 1.422-.465 2-.772v1.4c0 .306-.689.844-2 1.286zm0-4v-1.914c.746-.207 1.422-.465 2-.772v1.4c0 .306-.689.844-2 1.286zm-5-3.286c-4.547 0-7-1.42-7-2s2.453-2 7-2 7 1.42 7 2-2.453 2-7 2zm-6-20v1c0 .552.448 1 1 1h2c1.654 0 3 1.346 3 3v3h-3v2h-2v-2c-1.654 0-3-1.346-3-3h2c0 .552.448 1 1 1h3v-1c0-.552-.448-1-1-1h-2c-1.654 0-3-1.346-3-3v-3h3v-2h2v2c1.654 0 3 1.346 3 3h-2c0-.552-.448-1-1-1zm8 8h2v2h-2z" fill="url(#SVGID_1_)"/></svg>