<?xml version="1.0" encoding="utf-8"?>
<!-- Generator: Adobe Illustrator 25.2.3, SVG Export Plug-In . SVG Version: 6.00 Build 0)  -->
<svg version="1.1" id="Layer_5" xmlns="http://www.w3.org/2000/svg" xmlns:xlink="http://www.w3.org/1999/xlink" x="0px" y="0px"
	 viewBox="0 0 512 512" style="enable-background:new 0 0 512 512;" xml:space="preserve">
<style type="text/css">
	.st0{display:none;fill:url(#SVGID_1_);}
	.st1{fill:#3291E9;}
	.st2{fill:url(#SVGID_2_);}
	.st3{opacity:0.5;}
	.st4{fill-rule:evenodd;clip-rule:evenodd;fill:#3291E9;}
	.st5{fill-rule:evenodd;clip-rule:evenodd;fill:url(#SVGID_3_);}
	.st6{fill-rule:evenodd;clip-rule:evenodd;fill:url(#SVGID_4_);}
	.st7{opacity:0.3;}
	.st8{fill-rule:evenodd;clip-rule:evenodd;fill:url(#SVGID_5_);}
	.st9{fill:#FFFFFF;}
	.st10{fill:#24D7D0;}
	.st11{fill:#14869F;}
	.st12{fill:#1EB6D1;}
	.st13{fill:#6BD9FC;}
</style>
<linearGradient id="SVGID_1_" gradientUnits="userSpaceOnUse" x1="-583.096" y1="698.625" x2="-583.096" y2="760.625" gradientTransform="matrix(8 0 0 -8 4921 6093)">
	<stop  offset="0" style="stop-color:#9F2FFF"/>
	<stop  offset="1" style="stop-color:#0BB1D3"/>
</linearGradient>
<path class="st0" d="M131.1,248l-28.5,57l69.6,87h23.7l69.6-87l-28.5-57H131.1z M197.2,312L184,356.2L170.8,312H197.2z M172.9,296
	l11.1-22.1l11.1,22.1H172.9z M196.9,264h22.1L208,286.1L196.9,264z M160,286.1L148.9,264h22.1L160,286.1z M147.1,296h-22.1
	l11.1-22.1L147.1,296z M154,312l15.2,50.8L128.6,312H154z M214,312h25.4l-40.6,50.8L214,312z M220.9,296l11.1-22.1l11.1,22.1H220.9z
	 M464,347.1V328h-16v16.8c-5.3-0.5-10.6-0.8-16-0.8c-35.8,0-72,11-72,32v11.2c-2.5-1.3-5.1-2.5-8-3.6V128h-23.5L400,36.9l71.5,91.1
	H448v152h16V144h40.5L400,11.1l-94.5,120.3c-6.9-7-16.3-11.4-26.8-11.4H272V96c0-48.5-39.5-88-88-88S96,47.5,96,96v24h-6.6
	c-18.7,0-34.3,13.4-37.2,31.8L8.5,428.5c-0.3,1.9-0.5,3.9-0.5,5.8C8,455.1,24.9,472,45.7,472H232c0,21,36.2,32,72,32
	c25.6,0,51.4-5.7,64-16.6c12.6,10.9,38.4,16.6,64,16.6c35.8,0,72-11,72-32v-96C504,361.4,486.6,351.7,464,347.1z M280,377.7
	c-26.3,3.8-48,14-48,30.3v16H96c-4.4,0-8-3.6-8-8V240c0-4.4,3.6-8,8-8h176c4.4,0,8,3.6,8,8V377.7z M248,428.8c4.6,2.5,10,4.5,16,6.2
	v15.3c-10.5-3.5-16-7.8-16-10.3V428.8z M280,438.3c5.2,0.8,10.6,1.3,16,1.5v16c-5.8-0.3-11.2-0.8-16-1.6V438.3z M296,471.8v16
	c-5.8-0.3-11.2-0.8-16-1.6v-15.9C285.2,471,290.6,471.5,296,471.8z M312,471.8c5.4-0.2,10.8-0.8,16-1.5v15.9
	c-4.8,0.8-10.2,1.3-16,1.6V471.8z M312,455.8v-16c5.4-0.2,10.8-0.8,16-1.5v15.9C323.2,455,317.8,455.5,312,455.8z M344,435
	c6-1.7,11.4-3.7,16-6.2V440c0,2.4-5.5,6.8-16,10.3V435z M376,428.8c4.6,2.5,10,4.5,16,6.2v15.3c-10.5-3.5-16-7.8-16-10.3V428.8z
	 M408,438.3c5.2,0.8,10.6,1.3,16,1.5v16c-5.8-0.3-11.2-0.8-16-1.6V438.3z M424,471.8v16c-5.8-0.3-11.2-0.8-16-1.6v-15.9
	C413.2,471,418.6,471.5,424,471.8z M440,471.8c5.4-0.2,10.8-0.8,16-1.5v15.9c-4.8,0.8-10.2,1.3-16,1.6V471.8z M440,455.8v-16
	c5.4-0.2,10.8-0.8,16-1.5v15.9C451.2,455,445.8,455.5,440,455.8z M440,423.8v-16c5.4-0.2,10.8-0.8,16-1.5v15.9
	C451.2,423,445.8,423.5,440,423.8z M424,423.8c-5.8-0.3-11.2-0.8-16-1.6v-15.9c5.2,0.8,10.6,1.3,16,1.5V423.8z M392,418.3
	c-10.5-3.5-16-7.8-16-10.3v-11.2c4.6,2.5,10,4.5,16,6.2V418.3z M360,408c0,4.6-19.6,16-56,16s-56-11.4-56-16s19.6-16,56-16
	S360,403.4,360,408z M336,144v135.4l-20.1-127.6c-0.4-2.7-1.2-5.3-2.2-7.8L336,144z M184,24c39.7,0,72,32.3,72,72v72h-16V96
	c0-30.9-25.1-56-56-56s-56,25.1-56,56v72h-16V96C112,56.3,144.3,24,184,24z M224,120h-80V96c0-22.1,17.9-40,40-40s40,17.9,40,40V120
	z M45.7,456c-12,0-21.7-9.7-21.7-21.7c0-1.1,0.1-2.3,0.3-3.4L68,154.3c1.7-10.6,10.7-18.3,21.4-18.3H96v32H80v16h80v-16h-16v-32h80
	v32h-16v16h80v-16h-16v-32h6.6c10.7,0,19.7,7.7,21.4,18.3L335.5,379c-9.9-2-20.7-3-31.5-3c-2.7,0-5.3,0.1-8,0.2V240
	c0-13.2-10.8-24-24-24H96c-13.2,0-24,10.8-24,24v176c0,13.2,10.8,24,24,24h136v16H45.7z M248,472v-11.2c4.6,2.5,10,4.5,16,6.2v15.3
	C253.5,478.8,248,474.4,248,472z M344,482.3V467c6-1.7,11.4-3.7,16-6.2V472C360,474.4,354.5,478.8,344,482.3z M376,472v-11.2
	c4.6,2.5,10,4.5,16,6.2v15.3C381.5,478.8,376,474.4,376,472z M472,482.3V467c6-1.7,11.4-3.7,16-6.2V472
	C488,474.4,482.5,478.8,472,482.3z M472,450.3V435c6-1.7,11.4-3.7,16-6.2V440C488,442.4,482.5,446.8,472,450.3z M472,418.3V403
	c6-1.7,11.4-3.7,16-6.2V408C488,410.4,482.5,414.8,472,418.3z M432,392c-36.4,0-56-11.4-56-16s19.6-16,56-16s56,11.4,56,16
	S468.4,392,432,392z M384,232v8c0,4.4,3.6,8,8,8h16c13.2,0,24,10.8,24,24v24h-24v16h-16v-16c-13.2,0-24-10.8-24-24h16
	c0,4.4,3.6,8,8,8h24v-8c0-4.4-3.6-8-8-8h-16c-13.2,0-24-10.8-24-24v-24h24v-16h16v16c13.2,0,24,10.8,24,24h-16c0-4.4-3.6-8-8-8H384z
	 M448,296h16v16h-16V296z"/>
<path class="st1" d="M256,30.7L256,30.7c-122.6,0-222,97.4-222,217.5l0,0c0,120.1,99.4,217.5,222,217.5l0,0
	c122.6,0,222-97.4,222-217.5l0,0C478,128.1,378.6,30.7,256,30.7z"/>
<linearGradient id="SVGID_2_" gradientUnits="userSpaceOnUse" x1="-701.9509" y1="795.4168" x2="-698.1989" y2="795.4168" gradientTransform="matrix(-116 116 -1091.5 -177.1458 787244.75 222361.625)">
	<stop  offset="4.800000e-02" style="stop-color:#1F66A9"/>
	<stop  offset="0.6853" style="stop-color:#3291E9"/>
</linearGradient>
<path class="st2" d="M256,30.7L256,30.7c-122.6,0-222,97.4-222,217.5l0,0c0,120.1,99.4,217.5,222,217.5l0,0
	c122.6,0,222-97.4,222-217.5l0,0C478,128.1,378.6,30.7,256,30.7z"/>
<g transform="scale(2)" class="st3">
	<path class="st4" d="M200,41.8c-4.3,4.4-9.6,8.8-16,12.9c-21.4,13.9-38.4,33.9-38.9,73.7c-0.5,44.1,19.8,66,44,86.2
		c-17.6,11.5-38.7,18.3-61.4,18.3C66.6,232.8,17,184.2,17,124.1S66.6,15.3,127.7,15.3C155.3,15.3,180.6,25.3,200,41.8z"/>
	
		<linearGradient id="SVGID_3_" gradientUnits="userSpaceOnUse" x1="-354.9848" y1="397.8015" x2="-351.1568" y2="397.8015" gradientTransform="matrix(-143.672 -14.7809 3.752 -320.542 -52301.043 122395.9062)">
		<stop  offset="0" style="stop-color:#E9A332;stop-opacity:0"/>
		<stop  offset="1.000000e-04" style="stop-color:#23DC7D;stop-opacity:0"/>
		<stop  offset="1" style="stop-color:#23DC7D"/>
	</linearGradient>
	<path class="st5" d="M200,41.8c-4.3,4.4-9.6,8.8-16,12.9c-21.4,13.9-38.4,33.9-38.9,73.7c-0.5,44.1,19.8,66,44,86.2
		c-17.6,11.5-38.7,18.3-61.4,18.3C66.6,232.8,17,184.2,17,124.1S66.6,15.3,127.7,15.3C155.3,15.3,180.6,25.3,200,41.8z"/>
</g>
<g transform="scale(2)" class="st3">
	<path class="st4" d="M155.4,18.8c-3,7.9-8.1,16.2-15.7,24.8c-16.8,19-27.9,42.7-17.6,81.2c13,48.7,44.5,62.4,78,77.1
		c1.1,0.5,2.3,1,3.4,1.5c-19.8,18.3-46.5,29.5-75.8,29.5C66.6,232.8,17,184.2,17,124.1S66.6,15.3,127.7,15.3
		C137.2,15.3,146.5,16.5,155.4,18.8z"/>
	
		<linearGradient id="SVGID_4_" gradientUnits="userSpaceOnUse" x1="-354.3131" y1="397.3511" x2="-350.5017" y2="397.3511" gradientTransform="matrix(-142.3732 24.0786 -81.2626 -310.022 -17988.1406 131836.4375)">
		<stop  offset="0" style="stop-color:#E9A332;stop-opacity:0"/>
		<stop  offset="1.000000e-04" style="stop-color:#23DC7D;stop-opacity:0"/>
		<stop  offset="1" style="stop-color:#23DC7D"/>
	</linearGradient>
	<path class="st6" d="M155.4,18.8c-3,7.9-8.1,16.2-15.7,24.8c-16.8,19-27.9,42.7-17.6,81.2c13,48.7,44.5,62.4,78,77.1
		c1.1,0.5,2.3,1,3.4,1.5c-19.8,18.3-46.5,29.5-75.8,29.5C66.6,232.8,17,184.2,17,124.1S66.6,15.3,127.7,15.3
		C137.2,15.3,146.5,16.5,155.4,18.8z"/>
</g>
<g transform="translate(0 36.5269) scale(2)" class="st7">
	<path class="st4" d="M24.8,65.6c0.4,1.4,0.7,2.9,1.2,4.3c14.2,48.3,53.9,59.8,96.3,72c29.6,8.6,60.5,17.5,84.8,39.6
		c-20.1,20.4-48.3,33-79.4,33C66.6,214.6,17,165.9,17,105.8C17,91.6,19.8,78,24.8,65.6z"/>
	
		<linearGradient id="SVGID_5_" gradientUnits="userSpaceOnUse" x1="-349.5851" y1="380.1681" x2="-345.7623" y2="380.1681" gradientTransform="matrix(176.897 81.027 -35.8274 263.606 75424.2969 -71794.7734)">
		<stop  offset="0" style="stop-color:#23DC7D"/>
		<stop  offset="1" style="stop-color:#23DC7D;stop-opacity:0"/>
	</linearGradient>
	<path class="st8" d="M24.8,65.6c0.4,1.4,0.7,2.9,1.2,4.3c14.2,48.3,53.9,59.8,96.3,72c29.6,8.6,60.5,17.5,84.8,39.6
		c-20.1,20.4-48.3,33-79.4,33C66.6,214.6,17,165.9,17,105.8C17,91.6,19.8,78,24.8,65.6z"/>
</g>
<path class="st9" d="M255,406.5c88.3,0,159.8-70.3,159.8-157c0-86.7-71.5-157-159.8-157c-88.3,0-159.8,70.3-159.8,157
	C95.2,336.2,166.8,406.5,255,406.5z"/>
<path class="st10" d="M263.7,171.5v9.8l-10.8-1.4v-8.4c1.6,0.9,3.4,1.4,5.4,1.4S262,172.4,263.7,171.5z"/>
<path class="st10" d="M263.3,275.2v24.4h-10.8v-24.4C255.8,275,259.5,275,263.3,275.2z"/>
<path class="st11" d="M268.7,162.3c0,3.9-2.1,7.4-5.4,9.2c-1.6,0.9-3.4,1.4-5.4,1.4c-2,0-3.8-0.5-5.4-1.4c-3.2-1.8-5.4-5.3-5.4-9.2
	c0-5.9,4.9-10.7,10.8-10.7C264,151.7,268.7,156.5,268.7,162.3z"/>
<path class="st12" d="M230.7,220.8V267c0,0.7-0.5,1.2-1.2,1.2H186c-0.9,0-1.4-0.8-1.1-1.7l22.1-55.9c0.3-0.7,1-0.9,1.6-0.7l21.4,9.8
	C230.5,219.9,230.7,220.4,230.7,220.8z"/>
<path class="st13" d="M275,234.9c-2.8,6.5-6.8,12.5-11.3,18.1c-3.3,4-7,7.8-10.8,11.3c-4.5,4.1-9.1,7.8-13.5,11
	c-0.6,0.4-1.5,0.2-1.1-0.4l0,0c2.1-4.5,6.3-16.6,5.5-42.9c-0.9-28.5-11-47-14.9-53c-0.6-0.8,0.2-1.9,1.2-1.8l22.8,2.9l10.8,1.4
	l15.7,2l0,0c0.2,0,0.3,0.2,0.3,0.3C280.5,186.4,286.7,207.9,275,234.9z"/>
<path class="st12" d="M309.3,242.5c0,37.6-13.5,41.2-16.9,43.9c-0.5,0.3-1.2,0.3-1.6-0.1c-2.3-2.2-8.3-8.7-21.7-10.5
	c-1.8-0.3-3.6-0.4-5.4-0.6c-3.7-0.3-7.4-0.3-10.8-0.2c-5.8,0.3-10.6,0.9-13.4,1.3l0,0c-0.7,0.1-0.7-0.9-0.1-1.3
	c1.4-1,2.8-2.1,4.3-3.2c0.5-0.4,1-0.8,1.5-1.2c2.6-2,5.1-4.2,7.7-6.6c0.5-0.4,1-0.9,1.4-1.3c0.4-0.4,0.9-0.8,1.4-1.3
	c0.2-0.2,0.4-0.3,0.5-0.5c0.3-0.3,0.5-0.5,0.8-0.8l0,0c0.3-0.3,0.5-0.6,0.8-0.9c0.4-0.4,0.8-0.8,1.1-1.2c0.4-0.4,0.8-0.8,1.2-1.3
	c0.4-0.4,0.9-0.9,1.2-1.3c0.8-0.8,1.5-1.8,2.3-2.7c0.3-0.5,0.8-0.9,1.1-1.4c0.3-0.5,0.8-0.9,1.1-1.4c0.3-0.5,0.7-0.9,1-1.4
	c0.3-0.5,0.7-0.9,1-1.4c0.2-0.3,0.4-0.6,0.6-0.8c0.3-0.3,0.4-0.7,0.7-1c0.5-0.8,1-1.5,1.4-2.3c0.2-0.3,0.4-0.7,0.6-1l0,0
	c0.4-0.7,0.8-1.3,1.2-2c0,0,0,0,0-0.1c0.7-1.2,1.3-2.4,1.9-3.6c0.3-0.5,0.5-1,0.7-1.5c11.8-27.3,5.3-49.1,4.6-51.3
	c0-0.1,0-0.2,0.1-0.1l0,0c0,0,0,0,0,0C282.4,184.8,309.3,208.1,309.3,242.5z"/>
<path class="st11" d="M358,278.8c0,1-0.6,2-1.6,2.5l0,0c-12,5.7-19.5,17.3-23.9,29.7c-2,5.6-4.5,10.9-7.6,15.8
	c-2,3.2-5.8,5.3-9.3,3.7l0,0l-5.4-2.4c-4.1-1.8-8.5-1.8-12.6,0l-5.4,2.4c-4.1,1.8-8.5,1.8-12.6,0l-5.4-2.4c-4.1-1.8-8.5-1.8-12.6,0
	l-5.4,2.4c-4.1,1.8-8.5,1.8-12.6,0l-5.4-2.4c-4.1-1.8-8.5-1.8-12.6,0l-5.4,2.4c-4.1,1.8-8.6,1.8-12.6,0l-5.4-2.4
	c-4.1-1.8-8.6-1.8-12.6,0l-5,2.2l0,0c-2.4,1-5.1-0.1-6.5-2.3c-8.7-13.2-13.6-28.9-13.6-45.6c0-1.2,0-2.4,0.1-3.5
	c0-0.7,0.6-1.2,1.2-1.2h46.1c0.7,0,1.2,0.5,1.2,1.2v5.8c0,8.1,6.7,14.8,15,14.8h65.6c7.2,0,13.2-5,14.6-11.7
	c0.1-0.5,0.6-0.9,1.2-0.9l0,0c14.6,0,29-3.2,42.1-9.4l2.6-1.2c0.9-0.5,2-0.3,2.9,0.2C357.4,277,358,277.9,358,278.8L358,278.8z"/>
</svg>
