<?xml version="1.0" encoding="utf-8"?>
<!-- Generator: Adobe Illustrator 25.2.3, SVG Export Plug-In . SVG Version: 6.00 Build 0)  -->
<svg version="1.1" id="Layer_5" xmlns="http://www.w3.org/2000/svg" xmlns:xlink="http://www.w3.org/1999/xlink" x="0px" y="0px"
	 viewBox="0 0 512 512" style="enable-background:new 0 0 512 512;" xml:space="preserve">
<style type="text/css">
	.st0{display:none;fill:url(#SVGID_1_);}
	.st1{fill:#3291E9;}
	.st2{fill:url(#SVGID_2_);}
	.st3{opacity:0.5;}
	.st4{fill-rule:evenodd;clip-rule:evenodd;fill:#3291E9;}
	.st5{fill-rule:evenodd;clip-rule:evenodd;fill:url(#SVGID_3_);}
	.st6{fill-rule:evenodd;clip-rule:evenodd;fill:url(#SVGID_4_);}
	.st7{opacity:0.3;}
	.st8{fill-rule:evenodd;clip-rule:evenodd;fill:url(#SVGID_5_);}
	.st9{fill:#FFFFFF;}
	.st10{fill:#24D7D0;}
	.st11{fill:#14869F;}
	.st12{fill:#1EB6D1;}
	.st13{fill:#6BD9FC;}
</style>
<linearGradient id="SVGID_1_" gradientUnits="userSpaceOnUse" x1="-583.096" y1="698.625" x2="-583.096" y2="760.625" gradientTransform="matrix(8 0 0 -8 4921 6093)">
	<stop  offset="0" style="stop-color:#9F2FFF"/>
	<stop  offset="1" style="stop-color:#0BB1D3"/>
</linearGradient>
<path class="st0" d="M131.1,248l-28.5,57l69.6,87h23.7l69.6-87l-28.5-57H131.1z M197.2,312L184,356.2L170.8,312H197.2z M172.9,296
	l11.1-22.1l11.1,22.1H172.9z M196.9,264h22.1L208,286.1L196.9,264z M160,286.1L148.9,264h22.1L160,286.1z M147.1,296h-22.1
	l11.1-22.1L147.1,296z M154,312l15.2,50.8L128.6,312H154z M214,312h25.4l-40.6,50.8L214,312z M220.9,296l11.1-22.1l11.1,22.1H220.9z
	 M464,347.1V328h-16v16.8c-5.3-0.5-10.6-0.8-16-0.8c-35.8,0-72,11-72,32v11.2c-2.5-1.3-5.1-2.5-8-3.6V128h-23.5L400,36.9l71.5,91.1
	H448v152h16V144h40.5L400,11.1l-94.5,120.3c-6.9-7-16.3-11.4-26.8-11.4H272V96c0-48.5-39.5-88-88-88S96,47.5,96,96v24h-6.6
	c-18.7,0-34.3,13.4-37.2,31.8L8.5,428.5c-0.3,1.9-0.5,3.9-0.5,5.8C8,455.1,24.9,472,45.7,472H232c0,21,36.2,32,72,32
	c25.6,0,51.4-5.7,64-16.6c12.6,10.9,38.4,16.6,64,16.6c35.8,0,72-11,72-32v-96C504,361.4,486.6,351.7,464,347.1z M280,377.7
	c-26.3,3.8-48,14-48,30.3v16H96c-4.4,0-8-3.6-8-8V240c0-4.4,3.6-8,8-8h176c4.4,0,8,3.6,8,8V377.7z M248,428.8c4.6,2.5,10,4.5,16,6.2
	v15.3c-10.5-3.5-16-7.8-16-10.3V428.8z M280,438.3c5.2,0.8,10.6,1.3,16,1.5v16c-5.8-0.3-11.2-0.8-16-1.6V438.3z M296,471.8v16
	c-5.8-0.3-11.2-0.8-16-1.6v-15.9C285.2,471,290.6,471.5,296,471.8z M312,471.8c5.4-0.2,10.8-0.8,16-1.5v15.9
	c-4.8,0.8-10.2,1.3-16,1.6V471.8z M312,455.8v-16c5.4-0.2,10.8-0.8,16-1.5v15.9C323.2,455,317.8,455.5,312,455.8z M344,435
	c6-1.7,11.4-3.7,16-6.2V440c0,2.4-5.5,6.8-16,10.3V435z M376,428.8c4.6,2.5,10,4.5,16,6.2v15.3c-10.5-3.5-16-7.8-16-10.3V428.8z
	 M408,438.3c5.2,0.8,10.6,1.3,16,1.5v16c-5.8-0.3-11.2-0.8-16-1.6V438.3z M424,471.8v16c-5.8-0.3-11.2-0.8-16-1.6v-15.9
	C413.2,471,418.6,471.5,424,471.8z M440,471.8c5.4-0.2,10.8-0.8,16-1.5v15.9c-4.8,0.8-10.2,1.3-16,1.6V471.8z M440,455.8v-16
	c5.4-0.2,10.8-0.8,16-1.5v15.9C451.2,455,445.8,455.5,440,455.8z M440,423.8v-16c5.4-0.2,10.8-0.8,16-1.5v15.9
	C451.2,423,445.8,423.5,440,423.8z M424,423.8c-5.8-0.3-11.2-0.8-16-1.6v-15.9c5.2,0.8,10.6,1.3,16,1.5V423.8z M392,418.3
	c-10.5-3.5-16-7.8-16-10.3v-11.2c4.6,2.5,10,4.5,16,6.2V418.3z M360,408c0,4.6-19.6,16-56,16s-56-11.4-56-16s19.6-16,56-16
	S360,403.4,360,408z M336,144v135.4l-20.1-127.6c-0.4-2.7-1.2-5.3-2.2-7.8L336,144z M184,24c39.7,0,72,32.3,72,72v72h-16V96
	c0-30.9-25.1-56-56-56s-56,25.1-56,56v72h-16V96C112,56.3,144.3,24,184,24z M224,120h-80V96c0-22.1,17.9-40,40-40s40,17.9,40,40V120
	z M45.7,456c-12,0-21.7-9.7-21.7-21.7c0-1.1,0.1-2.3,0.3-3.4L68,154.3c1.7-10.6,10.7-18.3,21.4-18.3H96v32H80v16h80v-16h-16v-32h80
	v32h-16v16h80v-16h-16v-32h6.6c10.7,0,19.7,7.7,21.4,18.3L335.5,379c-9.9-2-20.7-3-31.5-3c-2.7,0-5.3,0.1-8,0.2V240
	c0-13.2-10.8-24-24-24H96c-13.2,0-24,10.8-24,24v176c0,13.2,10.8,24,24,24h136v16H45.7z M248,472v-11.2c4.6,2.5,10,4.5,16,6.2v15.3
	C253.5,478.8,248,474.4,248,472z M344,482.3V467c6-1.7,11.4-3.7,16-6.2V472C360,474.4,354.5,478.8,344,482.3z M376,472v-11.2
	c4.6,2.5,10,4.5,16,6.2v15.3C381.5,478.8,376,474.4,376,472z M472,482.3V467c6-1.7,11.4-3.7,16-6.2V472
	C488,474.4,482.5,478.8,472,482.3z M472,450.3V435c6-1.7,11.4-3.7,16-6.2V440C488,442.4,482.5,446.8,472,450.3z M472,418.3V403
	c6-1.7,11.4-3.7,16-6.2V408C488,410.4,482.5,414.8,472,418.3z M432,392c-36.4,0-56-11.4-56-16s19.6-16,56-16s56,11.4,56,16
	S468.4,392,432,392z M384,232v8c0,4.4,3.6,8,8,8h16c13.2,0,24,10.8,24,24v24h-24v16h-16v-16c-13.2,0-24-10.8-24-24h16
	c0,4.4,3.6,8,8,8h24v-8c0-4.4-3.6-8-8-8h-16c-13.2,0-24-10.8-24-24v-24h24v-16h16v16c13.2,0,24,10.8,24,24h-16c0-4.4-3.6-8-8-8H384z
	 M448,296h16v16h-16V296z"/>
<path class="st1" d="M199.1,254.2c0-3.2,0.5-6.1,1.6-8.7c1.1-2.6,2.5-4.9,4.3-6.7c1.9-1.8,4.1-3.3,6.7-4.2c2.6-1,5.4-1.5,8.5-1.5
	c3.1,0,6,0.4,8.6,1.4c2.6,0.9,4.8,2.3,6.7,4.2c1.9,1.8,3.3,4.1,4.4,6.7c1.1,2.6,1.6,5.5,1.6,8.7c0,3.1-0.5,6-1.6,8.5
	c-1.1,2.6-2.5,4.8-4.4,6.6c-1.9,1.8-4.1,3.3-6.7,4.4c-2.6,1-5.5,1.5-8.6,1.6c-3.1,0-5.9-0.5-8.5-1.5c-2.6-1-4.8-2.4-6.7-4.2
	c-1.8-1.8-3.3-4.1-4.3-6.6C199.6,260.2,199.1,257.3,199.1,254.2z M206.6,253.7c0,2.1,0.3,4.1,1,5.9c0.7,1.8,1.6,3.4,2.8,4.7
	c1.2,1.3,2.6,2.4,4.3,3.1c1.7,0.8,3.6,1.1,5.6,1.1c2.1,0,4-0.4,5.6-1.1c1.7-0.8,3.1-1.8,4.3-3.1c1.2-1.3,2.1-2.9,2.8-4.7
	c0.7-1.8,1-3.8,1-5.9c0-2-0.3-3.9-1-5.6c-0.6-1.7-1.6-3.2-2.8-4.5c-1.2-1.3-2.7-2.3-4.3-3.1c-1.7-0.8-3.6-1.1-5.6-1.1
	c-2.1,0-4,0.4-5.6,1.1c-1.7,0.7-3.1,1.7-4.3,3.1c-1.2,1.3-2.1,2.8-2.8,4.5C206.9,249.9,206.6,251.8,206.6,253.7z"/>
<path class="st1" d="M249.7,246.9h6.4v4.1h0.1c1-1.7,2.3-2.9,4-3.6s3.4-1.1,5.4-1.1c2.1,0,3.9,0.4,5.6,1.1c1.7,0.7,3.1,1.7,4.2,3
	c1.2,1.3,2.1,2.8,2.7,4.5c0.6,1.7,0.9,3.6,0.9,5.6c0,2-0.3,3.9-1,5.6c-0.6,1.7-1.5,3.2-2.7,4.5c-1.1,1.3-2.5,2.3-4.1,3.1
	c-1.6,0.7-3.4,1.1-5.3,1.1c-1.3,0-2.4-0.1-3.4-0.4c-1-0.3-1.8-0.6-2.6-1c-0.8-0.4-1.4-0.8-1.9-1.3c-0.5-0.5-1-1-1.3-1.4h-0.2v16.3
	h-6.8V246.9z M272.1,260.5c0-1.1-0.2-2.1-0.6-3.1c-0.3-1-0.9-1.8-1.6-2.6c-0.7-0.8-1.5-1.4-2.5-1.8c-1-0.5-2.1-0.7-3.3-0.7
	c-1.2,0-2.4,0.2-3.3,0.7c-1,0.5-1.8,1.1-2.5,1.8c-0.7,0.8-1.2,1.6-1.6,2.6c-0.3,1-0.5,2-0.5,3.1c0,1.1,0.2,2.1,0.5,3.1
	c0.4,1,0.9,1.8,1.6,2.6c0.7,0.8,1.6,1.4,2.5,1.8c1,0.5,2.1,0.7,3.3,0.7c1.2,0,2.4-0.2,3.3-0.7c1-0.5,1.8-1.1,2.5-1.8
	c0.7-0.8,1.2-1.6,1.6-2.6C272,262.6,272.1,261.5,272.1,260.5z"/>
<path class="st1" d="M292.7,262.9c0.2,2,1,3.6,2.4,4.7c1.4,1.1,3,1.7,4.9,1.7c1.7,0,3.1-0.3,4.2-1c1.2-0.7,2.2-1.6,3-2.7l4.9,3.7
	c-1.6,2-3.3,3.4-5.3,4.2c-2,0.8-4,1.2-6.2,1.2c-2,0-4-0.3-5.8-1c-1.8-0.7-3.4-1.6-4.7-2.9c-1.3-1.2-2.4-2.7-3.2-4.5
	c-0.8-1.8-1.1-3.7-1.1-5.9c0-2.1,0.4-4.1,1.1-5.8c0.8-1.8,1.8-3.3,3.2-4.5c1.3-1.2,2.9-2.2,4.7-2.9c1.8-0.7,3.7-1,5.8-1
	c1.9,0,3.6,0.3,5.1,1c1.6,0.6,2.9,1.6,4,2.8c1.1,1.2,2,2.8,2.6,4.6c0.6,1.8,1,3.9,1,6.3v1.9H292.7z M306.6,257.8
	c0-2-0.7-3.6-1.9-4.7c-1.2-1.2-2.9-1.8-5-1.8c-2,0-3.7,0.6-4.9,1.8c-1.2,1.2-1.9,2.7-2.1,4.7H306.6z"/>
<path class="st1" d="M321.7,246.9h6.4v4.4h0.1c0.6-1.4,1.6-2.5,2.9-3.5c1.3-1,3.1-1.5,5.4-1.5c1.8,0,3.3,0.3,4.6,0.9
	c1.3,0.6,2.3,1.4,3.1,2.4c0.8,1,1.4,2.1,1.7,3.4c0.3,1.3,0.5,2.6,0.5,4V274h-6.8v-13.7c0-0.8,0-1.6-0.1-2.5
	c-0.1-0.9-0.3-1.8-0.6-2.6c-0.3-0.8-0.8-1.5-1.5-2c-0.7-0.6-1.6-0.8-2.8-0.8c-1.1,0-2.1,0.2-2.9,0.6c-0.8,0.4-1.4,0.9-1.9,1.5
	c-0.5,0.6-0.8,1.4-1.1,2.2c-0.2,0.8-0.3,1.7-0.3,2.6V274h-6.8V246.9z"/>
<path class="st1" d="M376.3,242.6c-0.8-1.1-1.8-1.9-3-2.4c-1.2-0.5-2.6-0.8-4-0.8c-0.8,0-1.6,0.1-2.4,0.3c-0.8,0.2-1.4,0.5-2.1,0.9
	c-0.6,0.4-1.1,1-1.5,1.6c-0.4,0.6-0.6,1.4-0.6,2.3c0,1.4,0.5,2.4,1.4,3.1s2.1,1.3,3.5,1.9c1.4,0.5,2.9,1,4.6,1.5s3.2,1.2,4.6,2
	c1.4,0.9,2.6,2,3.5,3.4c0.9,1.4,1.4,3.3,1.4,5.7c0,2.1-0.4,4-1.2,5.7c-0.8,1.6-1.9,2.9-3.2,4c-1.3,1.1-2.9,1.8-4.6,2.4
	c-1.8,0.5-3.6,0.8-5.6,0.8c-2.5,0-4.9-0.4-7.2-1.2c-2.3-0.8-4.3-2.2-5.9-4.2l5.4-5.2c0.9,1.3,2,2.4,3.4,3.1c1.4,0.7,2.9,1.1,4.5,1.1
	c0.8,0,1.7-0.1,2.5-0.3c0.8-0.2,1.6-0.6,2.3-1c0.7-0.5,1.2-1,1.6-1.7c0.4-0.7,0.6-1.5,0.6-2.4c0-1.5-0.5-2.6-1.4-3.4
	c-0.9-0.8-2.1-1.5-3.5-2c-1.4-0.6-2.9-1.1-4.6-1.6c-1.7-0.5-3.2-1.1-4.6-2c-1.4-0.9-2.6-2-3.5-3.4c-0.9-1.4-1.4-3.3-1.4-5.7
	c0-2.1,0.4-3.9,1.2-5.4c0.9-1.5,2-2.8,3.3-3.7c1.4-1,3-1.8,4.7-2.3c1.8-0.5,3.6-0.7,5.4-0.7c2.1,0,4.1,0.3,6.1,1
	c2,0.6,3.8,1.7,5.4,3.2L376.3,242.6z"/>
<path class="st1" d="M396,262.9c0.2,2,1,3.6,2.4,4.7c1.4,1.1,3,1.7,4.9,1.7c1.7,0,3.1-0.3,4.2-1c1.2-0.7,2.2-1.6,3-2.7l4.9,3.7
	c-1.6,2-3.4,3.4-5.3,4.2c-2,0.8-4,1.2-6.2,1.2c-2,0-4-0.3-5.8-1c-1.8-0.7-3.4-1.6-4.7-2.9c-1.3-1.2-2.4-2.7-3.2-4.5
	c-0.8-1.8-1.1-3.7-1.1-5.9c0-2.1,0.4-4.1,1.1-5.8c0.8-1.8,1.8-3.3,3.2-4.5c1.3-1.2,2.9-2.2,4.7-2.9c1.8-0.7,3.7-1,5.8-1
	c1.9,0,3.6,0.3,5.1,1c1.6,0.6,2.9,1.6,4,2.8c1.1,1.2,2,2.8,2.6,4.6c0.6,1.8,1,3.9,1,6.3v1.9H396z M409.8,257.8c0-2-0.7-3.6-1.9-4.7
	c-1.2-1.2-2.9-1.8-5-1.8c-2,0-3.7,0.6-4.9,1.8c-1.2,1.2-1.9,2.7-2.1,4.7H409.8z"/>
<path class="st1" d="M441.9,270.3h-0.2c-1,1.5-2.2,2.7-3.7,3.4c-1.5,0.7-3.2,1-5,1c-1.2,0-2.5-0.2-3.7-0.5c-1.2-0.3-2.2-0.8-3.2-1.5
	c-0.9-0.7-1.6-1.5-2.2-2.5s-0.8-2.2-0.8-3.6c0-1.5,0.3-2.7,0.8-3.7c0.5-1.1,1.2-1.9,2.1-2.6c0.9-0.7,1.9-1.3,3.1-1.7
	c1.2-0.4,2.4-0.7,3.6-0.9c1.3-0.2,2.6-0.4,3.8-0.4c1.3-0.1,2.5-0.1,3.6-0.1h1.7v-0.7c0-1.7-0.6-3-1.8-3.8c-1.2-0.9-2.7-1.3-4.5-1.3
	c-1.4,0-2.8,0.3-4,0.8c-1.2,0.5-2.3,1.2-3.2,2l-3.6-3.6c1.5-1.5,3.3-2.7,5.2-3.3c2-0.7,4.1-1,6.3-1c1.9,0,3.5,0.2,4.9,0.7
	c1.3,0.4,2.4,1,3.3,1.6c0.9,0.7,1.5,1.5,2,2.4c0.5,0.9,0.8,1.8,1,2.7c0.2,0.9,0.4,1.8,0.4,2.7c0,0.8,0.1,1.6,0.1,2.2V274h-6.1V270.3
	z M441.5,261.9h-1.4c-0.9,0-2,0-3.2,0.1c-1.2,0.1-2.3,0.3-3.3,0.6c-1,0.3-1.9,0.7-2.6,1.2c-0.7,0.5-1.1,1.3-1.1,2.3
	c0,0.6,0.1,1.2,0.4,1.6c0.3,0.4,0.7,0.8,1.1,1.1c0.5,0.3,1,0.5,1.5,0.7c0.6,0.1,1.1,0.2,1.7,0.2c2.3,0,4-0.5,5.1-1.6
	c1.1-1.1,1.7-2.7,1.7-4.6V261.9z"/>
<path class="st1" d="M122,201L122,201c-32,0-58,26-58,58l0,0c0,32,26,58,58,58l0,0c32,0,58-26,58-58l0,0C180,227,154,201,122,201z"
	/>
<linearGradient id="SVGID_2_" gradientUnits="userSpaceOnUse" x1="-700.3334" y1="795.5139" x2="-699.3334" y2="795.5139" gradientTransform="matrix(-116 116 -1091.5 -177.1458 787244.75 222361.625)">
	<stop  offset="4.800000e-02" style="stop-color:#1F66A9"/>
	<stop  offset="0.6853" style="stop-color:#3291E9"/>
</linearGradient>
<path class="st2" d="M122,201L122,201c-32,0-58,26-58,58l0,0c0,32,26,58,58,58l0,0c32,0,58-26,58-58l0,0C180,227,154,201,122,201z"
	/>
<g transform="scale(2)" class="st3">
	<path class="st4" d="M79.8,107.6c-1.1,1.2-2.5,2.3-4.2,3.4c-5.6,3.7-10,9-10.2,19.6c-0.1,11.8,5.2,17.6,11.5,23
		c-4.6,3.1-10.1,4.9-16,4.9c-16,0-28.9-13-28.9-29s12.9-29,28.9-29C68.1,100.5,74.8,103.2,79.8,107.6z"/>
	
		<linearGradient id="SVGID_3_" gradientUnits="userSpaceOnUse" x1="-354.1858" y1="397.7632" x2="-353.1858" y2="397.7632" gradientTransform="matrix(-143.672 -14.7809 3.752 -320.542 -52301.043 122395.9062)">
		<stop  offset="0" style="stop-color:#E9A332;stop-opacity:0"/>
		<stop  offset="1.000000e-04" style="stop-color:#23DC7D;stop-opacity:0"/>
		<stop  offset="1" style="stop-color:#23DC7D"/>
	</linearGradient>
	<path class="st5" d="M79.8,107.6c-1.1,1.2-2.5,2.3-4.2,3.4c-5.6,3.7-10,9-10.2,19.6c-0.1,11.8,5.2,17.6,11.5,23
		c-4.6,3.1-10.1,4.9-16,4.9c-16,0-28.9-13-28.9-29s12.9-29,28.9-29C68.1,100.5,74.8,103.2,79.8,107.6z"/>
</g>
<g transform="scale(2)" class="st3">
	<path class="st4" d="M68.2,101.4c-0.8,2.1-2.1,4.3-4.1,6.6c-4.4,5.1-7.3,11.4-4.6,21.6c3.4,13,11.6,16.6,20.4,20.6
		c0.3,0.1,0.6,0.3,0.9,0.4c-5.2,4.9-12.1,7.9-19.8,7.9c-16,0-28.9-13-28.9-29s12.9-29,28.9-29C63.4,100.5,65.8,100.8,68.2,101.4z"/>
	
		<linearGradient id="SVGID_4_" gradientUnits="userSpaceOnUse" x1="-353.6526" y1="397.3693" x2="-352.6526" y2="397.3693" gradientTransform="matrix(-142.3732 24.0786 -81.2626 -310.022 -17988.1406 131836.4375)">
		<stop  offset="0" style="stop-color:#E9A332;stop-opacity:0"/>
		<stop  offset="1.000000e-04" style="stop-color:#23DC7D;stop-opacity:0"/>
		<stop  offset="1" style="stop-color:#23DC7D"/>
	</linearGradient>
	<path class="st6" d="M68.2,101.4c-0.8,2.1-2.1,4.3-4.1,6.6c-4.4,5.1-7.3,11.4-4.6,21.6c3.4,13,11.6,16.6,20.4,20.6
		c0.3,0.1,0.6,0.3,0.9,0.4c-5.2,4.9-12.1,7.9-19.8,7.9c-16,0-28.9-13-28.9-29s12.9-29,28.9-29C63.4,100.5,65.8,100.8,68.2,101.4z"/>
</g>
<g transform="translate(0 36.5269) scale(2)" class="st7">
	<path class="st4" d="M34,100.5c0.1,0.4,0.2,0.8,0.3,1.2c3.7,12.9,14.1,15.9,25.2,19.2c7.7,2.3,15.8,4.7,22.2,10.6
		c-5.3,5.4-12.6,8.8-20.8,8.8c-16,0-28.9-13-28.9-29C32,107.4,32.7,103.8,34,100.5z"/>
	
		<linearGradient id="SVGID_5_" gradientUnits="userSpaceOnUse" x1="-349.2841" y1="380.1298" x2="-348.2841" y2="380.1298" gradientTransform="matrix(176.897 81.027 -35.8274 263.606 75424.2969 -71794.7734)">
		<stop  offset="0" style="stop-color:#23DC7D"/>
		<stop  offset="1" style="stop-color:#23DC7D;stop-opacity:0"/>
	</linearGradient>
	<path class="st8" d="M34,100.5c0.1,0.4,0.2,0.8,0.3,1.2c3.7,12.9,14.1,15.9,25.2,19.2c7.7,2.3,15.8,4.7,22.2,10.6
		c-5.3,5.4-12.6,8.8-20.8,8.8c-16,0-28.9-13-28.9-29C32,107.4,32.7,103.8,34,100.5z"/>
</g>
<path class="st9" d="M121.8,301.2c23.1,0,41.8-18.7,41.8-41.9s-18.7-41.9-41.8-41.9c-23.1,0-41.8,18.7-41.8,41.9
	S98.7,301.2,121.8,301.2z"/>
<path class="st10" d="M124,238.5v2.6l-2.8-0.4v-2.2c0.4,0.2,0.9,0.4,1.4,0.4S123.6,238.8,124,238.5z"/>
<path class="st10" d="M123.9,266.2v6.5h-2.8v-6.5C122,266.1,122.9,266.1,123.9,266.2z"/>
<path class="st11" d="M125.3,236.1c0,1.1-0.6,2-1.4,2.5c-0.4,0.2-0.9,0.4-1.4,0.4c-0.5,0-1-0.1-1.4-0.4c-0.8-0.5-1.4-1.4-1.4-2.5
	c0-1.6,1.3-2.8,2.8-2.8C124.1,233.3,125.3,234.5,125.3,236.1z"/>
<path class="st12" d="M115.4,251.7V264c0,0.2-0.1,0.3-0.3,0.3h-11.4c-0.2,0-0.4-0.2-0.3-0.4l5.8-14.9c0.1-0.2,0.3-0.2,0.4-0.2
	l5.6,2.6C115.3,251.4,115.4,251.6,115.4,251.7z"/>
<path class="st13" d="M127,255.5c-0.7,1.7-1.8,3.3-3,4.8c-0.9,1.1-1.8,2.1-2.8,3c-1.2,1.1-2.4,2.1-3.5,2.9c-0.1,0.1-0.4,0-0.3-0.1
	l0,0c0.6-1.2,1.6-4.4,1.4-11.4c-0.2-7.6-2.9-12.5-3.9-14.1c-0.2-0.2,0-0.5,0.3-0.5l6,0.8l2.8,0.4l4.1,0.5l0,0c0,0,0.1,0,0.1,0.1
	C128.4,242.5,130,248.3,127,255.5z"/>
<path class="st12" d="M135.9,257.5c0,10-3.5,11-4.4,11.7c-0.1,0.1-0.3,0.1-0.4,0c-0.6-0.6-2.2-2.3-5.7-2.8c-0.5-0.1-0.9-0.1-1.4-0.2
	c-1-0.1-1.9-0.1-2.8,0c-1.5,0.1-2.8,0.2-3.5,0.4l0,0c-0.2,0-0.2-0.2,0-0.3c0.4-0.3,0.7-0.6,1.1-0.9c0.1-0.1,0.3-0.2,0.4-0.3
	c0.7-0.5,1.3-1.1,2-1.7c0.1-0.1,0.3-0.2,0.4-0.4c0.1-0.1,0.2-0.2,0.4-0.3c0,0,0.1-0.1,0.1-0.1c0.1-0.1,0.1-0.1,0.2-0.2l0,0
	c0.1-0.1,0.1-0.2,0.2-0.2c0.1-0.1,0.2-0.2,0.3-0.3c0.1-0.1,0.2-0.2,0.3-0.3s0.2-0.2,0.3-0.4c0.2-0.2,0.4-0.5,0.6-0.7
	c0.1-0.1,0.2-0.2,0.3-0.4c0.1-0.1,0.2-0.2,0.3-0.4c0.1-0.1,0.2-0.2,0.3-0.4c0.1-0.1,0.2-0.2,0.3-0.4c0-0.1,0.1-0.2,0.2-0.2
	c0.1-0.1,0.1-0.2,0.2-0.3c0.1-0.2,0.3-0.4,0.4-0.6c0-0.1,0.1-0.2,0.2-0.3l0,0c0.1-0.2,0.2-0.4,0.3-0.5c0,0,0,0,0,0
	c0.2-0.3,0.3-0.6,0.5-1c0.1-0.1,0.1-0.3,0.2-0.4c3.1-7.3,1.4-13.1,1.2-13.7c0,0,0,0,0,0l0,0c0,0,0,0,0,0
	C128.9,242.1,135.9,248.3,135.9,257.5z"/>
<path class="st11" d="M148.6,267.2c0,0.3-0.2,0.5-0.4,0.7l0,0c-3.1,1.5-5.1,4.6-6.2,7.9c-0.5,1.5-1.2,2.9-2,4.2
	c-0.5,0.9-1.5,1.4-2.4,1l0,0l-1.4-0.6c-1.1-0.5-2.2-0.5-3.3,0l-1.4,0.6c-1.1,0.5-2.2,0.5-3.3,0l-1.4-0.6c-1.1-0.5-2.2-0.5-3.3,0
	l-1.4,0.6c-1.1,0.5-2.2,0.5-3.3,0l-1.4-0.6c-1.1-0.5-2.2-0.5-3.3,0l-1.4,0.6c-1.1,0.5-2.2,0.5-3.3,0l-1.4-0.6
	c-1.1-0.5-2.2-0.5-3.3,0l-1.3,0.6l0,0c-0.6,0.3-1.3,0-1.7-0.6c-2.3-3.5-3.6-7.7-3.6-12.2c0-0.3,0-0.6,0-0.9c0-0.2,0.2-0.3,0.3-0.3
	h12.1c0.2,0,0.3,0.1,0.3,0.3v1.5c0,2.2,1.8,3.9,3.9,3.9h17.1c1.9,0,3.4-1.3,3.8-3.1c0-0.1,0.2-0.2,0.3-0.2l0,0c3.8,0,7.6-0.9,11-2.5
	l0.7-0.3c0.2-0.1,0.5-0.1,0.7,0.1C148.5,266.7,148.6,266.9,148.6,267.2L148.6,267.2z"/>
</svg>
